<?xml version="1.0" encoding="UTF-8"?>
<svg version="1.1" xmlns="http://www.w3.org/2000/svg" width="650" height="650">
<path d="M0 0 C4.91087903 1.38704217 8.87500791 3.59218098 13.0625 6.4375 C13.71009277 6.87344482 14.35768555 7.30938965 15.02490234 7.75854492 C22.69362944 13.02156185 29.9529942 18.92147546 36.5078125 25.52734375 C39.12945196 28.12843745 41.88556826 30.41986641 44.75 32.75 C50.48580806 37.51489864 55.84000536 42.6170732 61.125 47.875 C61.85944336 48.60041992 62.59388672 49.32583984 63.35058594 50.07324219 C66.79469609 53.53662009 69.60642662 56.71021913 72 61 C73.47764317 62.43789984 73.47764317 62.43789984 75.125 63.625 C80.16659603 67.76251235 83.99208768 72.88991179 88 78 C88.598125 78.75539063 89.19625 79.51078125 89.8125 80.2890625 C93.91528387 85.51251419 97.86316998 90.84576986 101.7890625 96.203125 C103.93932043 99.03835099 103.93932043 99.03835099 106.48046875 101.4609375 C109.22466024 104.22640179 111.46589533 107.19211539 113.6875 110.375 C114.11466309 110.98005371 114.54182617 111.58510742 114.98193359 112.20849609 C119.38487342 118.48022853 123.62582554 124.85902761 127.84472656 131.25537109 C129.54741076 133.82666892 131.27658638 136.38006492 133 138.9375 C143.73593571 155.06304859 153.4825896 171.60900278 162.01318359 189.00292969 C162.95962421 190.91828947 163.92303098 192.82381056 164.89453125 194.7265625 C166.97065871 198.79790169 168.99254075 202.89442767 171 207 C171.40589355 207.82338867 171.81178711 208.64677734 172.22998047 209.49511719 C197 260.15386244 197 260.15386244 197 278 C197.66 278 198.32 278 199 278 C206.9263073 309.52293567 214.02643057 340.55333724 217 373 C217.09498779 373.93996826 217.18997559 374.87993652 217.2878418 375.84838867 C218.21557777 386.01834925 218.25598154 396.20954858 218.29516602 406.41430664 C218.3068111 408.52928286 218.32745399 410.64422699 218.35668945 412.7590332 C218.39914012 415.84085707 218.41548774 418.92182739 218.42578125 422.00390625 C218.44328934 422.94867325 218.46079742 423.89344025 218.47883606 424.86683655 C218.45751791 431.26972973 218.45751791 431.26972973 216.34838867 434.63623047 C213.25598103 436.4320709 211.53181596 436.25166145 208 435.81640625 C206.26169922 435.62522217 206.26169922 435.62522217 204.48828125 435.43017578 C203.33714844 435.28821777 202.18601562 435.14625977 201 435 C199.06332021 434.8129198 197.1258089 434.63421377 195.1875 434.46484375 C194.19782227 434.37759033 193.20814453 434.29033691 192.18847656 434.20043945 C170.82363241 432.43857596 149.4189161 432.72635596 128 433 C126.77796875 433.01401855 125.5559375 433.02803711 124.296875 433.04248047 C83.54693715 433.66950204 42.29527293 439.60873424 2.57666016 448.52856445 C0 449 0 449 -4 449 C-4 449.66 -4 450.32 -4 451 C-5.16063965 451.30852905 -5.16063965 451.30852905 -6.34472656 451.62329102 C-26.78510235 457.08278013 -26.78510235 457.08278013 -46.83105469 463.82836914 C-50.88985126 465.32973241 -54.67460275 466.45846849 -59 467 C-60.15837626 462.94568308 -59.83691257 460.78187881 -58 457 C-57.34 457 -56.68 457 -56 457 C-55.690625 456.05125 -55.38125 455.1025 -55.0625 454.125 C-54 451 -54 451 -53 449 C-52.34 449 -51.68 449 -51 449 C-51 447.35 -51 445.7 -51 444 C-50.34 444 -49.68 444 -49 444 C-48.649375 442.845 -48.29875 441.69 -47.9375 440.5 C-46.71254915 436.79639274 -45.25342457 433.26289479 -43.640625 429.71166992 C-38.95460641 419.3903543 -35.4401533 408.78993493 -32 398 C-31.45624776 396.3214465 -30.91198919 394.64305693 -30.3671875 392.96484375 C-27.27673901 383.38052935 -24.48033145 373.76083378 -22 364 C-21.34 364 -20.68 364 -20 364 C-19.90203125 363.09121094 -19.8040625 362.18242187 -19.703125 361.24609375 C-19.55359375 359.98925781 -19.4040625 358.73242188 -19.25 357.4375 C-19.11078125 356.21933594 -18.9715625 355.00117188 -18.828125 353.74609375 C-18.23091164 349.73254854 -17.19070958 345.90121202 -16.109375 341.9921875 C-13.89651306 333.96688493 -12.3708905 325.8936681 -11 317.6875 C-10.87371216 316.94143494 -10.74742432 316.19536987 -10.61730957 315.42669678 C-8.724909 304.19230939 -7.10134351 292.93698275 -5.75 281.625 C-5.59917969 280.38322998 -5.44835937 279.14145996 -5.29296875 277.86206055 C-4.90472448 274.43890904 -4.5617534 271.01701258 -4.24182892 267.5870924 C-4.08077812 265.86416653 -3.91527423 264.14165103 -3.74529266 262.41958332 C-1.31588621 236.95687525 -1.77259415 211.4228784 -1.86307526 185.87403131 C-1.88326928 179.3995285 -1.89010232 172.92501275 -1.89794922 166.45048523 C-1.912512 155.61581771 -1.93267352 144.78117862 -1.95898438 133.9465332 C-1.96146781 132.92221367 -1.96146781 132.92221367 -1.96400142 131.8772008 C-1.97412379 127.71886867 -1.98442825 123.560537 -1.99479294 119.40220547 C-2.01046513 113.11262003 -2.02594732 106.82303418 -2.04101562 100.53344727 C-2.04267188 99.84324009 -2.04432813 99.15303291 -2.04603457 98.44191036 C-2.07336849 86.94876348 -2.09281565 75.45562026 -2.10683632 63.96244878 C-2.11680616 56.26657155 -2.13652532 48.57079924 -2.16369629 40.87496436 C-2.17855551 36.11452642 -2.18523371 31.3541031 -2.1896286 26.5936451 C-2.19338788 24.3804106 -2.20061977 22.16717902 -2.21149445 19.95396805 C-2.22581928 16.94554646 -2.22800688 13.93735893 -2.22705078 10.9289093 C-2.2342407 10.04403456 -2.24143063 9.15915981 -2.24883842 8.24747068 C-2.22818822 2.22818822 -2.22818822 2.22818822 0 0 Z " fill="#025EB0" transform="translate(299,26)"/>
<path d="M0 0 C1.64477312 5.58621113 -0.31101672 8.41435017 -2.9296875 13.359375 C-6.63247456 19.96753934 -10.64313317 26.39587058 -14.64697266 32.82421875 C-15.91140079 34.85752506 -17.1670105 36.89588604 -18.41796875 38.9375 C-18.78293457 39.53312744 -19.14790039 40.12875488 -19.52392578 40.74243164 C-19.86665527 41.3018042 -20.20938477 41.86117676 -20.5625 42.4375 C-22.33618902 45.32481498 -24.12024655 48.18036983 -26 51 C-26.66 51 -27.32 51 -28 51 C-28.27199219 51.73734375 -28.54398438 52.4746875 -28.82421875 53.234375 C-29.93835024 55.85498993 -31.18202888 57.92690131 -32.8125 60.25 C-34.79220405 63.14596995 -36.60716787 66.02641982 -38.25 69.125 C-43.8291711 79.38347589 -50.72170906 90.72170906 -59 99 C-63.76881072 98.69721837 -67.80786006 98.1302007 -72.27734375 96.46484375 C-79.58000838 94.21567998 -87.07239189 94.67915948 -94.625 94.8125 C-96.12108021 94.8275808 -97.6171752 94.84126317 -99.11328125 94.85351562 C-102.74249968 94.88623695 -106.37115248 94.93782944 -110 95 C-110 95.66 -110 96.32 -110 97 C-111.11375 97.29132813 -112.2275 97.58265625 -113.375 97.8828125 C-121.15463498 99.95909919 -128.75547835 102.16946623 -136.25 105.125 C-160.8106673 114.60097384 -182.30344046 111.60239996 -206.2590332 102.50878906 C-211.30847367 100.59242575 -216.33237329 98.91690668 -221.578125 97.60546875 C-223.49928084 97.12517979 -225.39948276 96.56120731 -227.2890625 95.96875 C-231.25057955 94.93458555 -235.05566144 94.51421189 -239.125 94.3125 C-239.858396 94.2719751 -240.59179199 94.2314502 -241.34741211 94.18969727 C-247.94946504 93.88527365 -254.43270316 94.25760992 -261 95 C-261 95.66 -261 96.32 -261 97 C-262.11375 97.29132813 -263.2275 97.58265625 -264.375 97.8828125 C-272.15454727 99.95907578 -279.75576795 102.16884908 -287.25 105.125 C-311.60955418 114.5441072 -334.37107661 111.78935207 -358.25488281 102.51318359 C-364.74147113 100.00731211 -371.15515595 98.29032069 -378 97 C-378 96.34 -378 95.68 -378 95 C-389.88 95 -401.76 95 -414 95 C-414 95.66 -414 96.32 -414 97 C-414.96035156 97.24492188 -415.92070312 97.48984375 -416.91015625 97.7421875 C-425.83669426 100.13878939 -434.13893969 103.25462733 -442.5625 107.0625 C-463.66738174 116.45086613 -485.73144496 120.17785265 -508 112 C-520.22698531 106.8313481 -520.22698531 106.8313481 -521.91015625 102.84375 C-521.93980469 102.2353125 -521.96945312 101.626875 -522 101 C-521 100 -521 100 -518.59277344 99.93408203 C-517.52575195 99.95841309 -516.45873047 99.98274414 -515.359375 100.0078125 C-497.30890664 100.2882269 -479.92853141 99.25858649 -462 97 C-462 96.34 -462 95.68 -462 95 C-462.99 95 -463.98 95 -465 95 C-466.3671875 93.62890625 -466.3671875 93.62890625 -467.875 91.5625 C-468.48214844 90.74394531 -469.08929688 89.92539062 -469.71484375 89.08203125 C-470.46894531 88.06496094 -471.22304688 87.04789063 -472 86 C-473.01901007 84.68897105 -474.04139877 83.38056406 -475.06640625 82.07421875 C-493 59.13351726 -493 59.13351726 -493 54 C-494.485 53.505 -494.485 53.505 -496 53 C-500.17037649 46.97612285 -500.17037649 46.97612285 -499.54199219 43.37597656 C-499.36313477 42.5919043 -499.18427734 41.80783203 -499 41 C-498.10354767 40.99191315 -497.20709534 40.98382629 -496.28347778 40.97549438 C-437.10749107 40.59034299 -437.10749107 40.59034299 -378 38 C-376.07764224 37.87702961 -374.15527867 37.75414989 -372.23291016 37.63134766 C-348.33984597 36.11722813 -348.33984597 36.11722813 -324.47900391 34.17431641 C-320.32066013 33.88191366 -316.16577176 33.91705322 -312 34 C-312 33.34 -312 32.68 -312 32 C-311.24328003 31.93228897 -310.48656006 31.86457794 -309.70690918 31.79481506 C-255.75861019 26.96011424 -201.87134278 21.62436355 -148 16 C-145.88146976 15.77893035 -143.76293949 15.55786102 -141.64440918 15.33679199 C-126.4498677 13.75080143 -111.2559743 12.15867969 -96.0625 10.5625 C-95.03134945 10.45422756 -94.0001989 10.34595512 -92.93780136 10.2344017 C-86.99187875 9.6099933 -81.04609035 8.98433243 -75.1004982 8.35678482 C-73.30471397 8.16735976 -71.50889589 7.97825522 -69.7130394 7.78951645 C-67.22663491 7.52808748 -64.7403496 7.26557102 -62.25415039 7.00219727 C-61.47600605 6.91980427 -60.69786171 6.83741127 -59.89613724 6.75252151 C-56.00622261 6.33636966 -52.11979207 5.90006981 -48.23580933 5.43161011 C-47.46744216 5.33899619 -46.69907499 5.24638227 -45.90742397 5.15096188 C-44.4684787 4.97586407 -43.02985926 4.7980558 -41.59166813 4.61686802 C-36.34907338 3.97578036 -31.27413184 3.83256724 -26 4 C-26 3.34 -26 2.68 -26 2 C-23.16724047 1.66103732 -20.33395339 1.32870306 -17.5 1 C-16.70851563 0.90460938 -15.91703125 0.80921875 -15.1015625 0.7109375 C-10.02970596 0.12892118 -5.10506141 -0.09367085 0 0 Z " fill="#035EB0" transform="translate(586,470)"/>
<path d="M0 0 C2.4375 0.375 2.4375 0.375 5 1 C6.20290795 3.4058159 6.09870627 4.8300602 6.0534668 7.51416016 C6.03286949 8.93599358 6.03286949 8.93599358 6.01185608 10.3865509 C5.9808506 11.94704414 5.9808506 11.94704414 5.94921875 13.5390625 C5.93116684 14.62672409 5.91311493 15.71438568 5.89451599 16.83500671 C5.83208361 20.4318256 5.76065352 24.02838398 5.6875 27.625 C5.65157745 29.4717482 5.65157745 29.4717482 5.6149292 31.35580444 C4.89849192 67.65754625 3.73122046 103.86922395 0 140 C-0.66 140 -1.32 140 -2 140 C-1.95101562 141.26328125 -1.90203125 142.5265625 -1.8515625 143.828125 C-1.86620441 152.20915672 -3.20209674 160.46852991 -4.375 168.75 C-4.50360413 169.66773193 -4.63220825 170.58546387 -4.76470947 171.53100586 C-10.0077235 208.64029034 -16.96537876 245.62211841 -26 282 C-26.25652344 283.04639648 -26.51304687 284.09279297 -26.77734375 285.17089844 C-27.43603432 287.82791377 -28.11559483 290.47778641 -28.8125 293.125 C-28.99530518 293.84268555 -29.17811035 294.56037109 -29.36645508 295.29980469 C-29.89453125 297.1953125 -29.89453125 297.1953125 -31 300 C-31.99 300.33 -32.98 300.66 -34 301 C-33.9484375 301.98097656 -33.896875 302.96195312 -33.84375 303.97265625 C-33.84375 308.42498013 -35.08348288 312.25303186 -36.5 316.4375 C-36.73847656 317.16904297 -36.97695312 317.90058594 -37.22265625 318.65429688 C-37.80596172 320.4392116 -38.40169935 322.22005557 -39 324 C-39.66 324 -40.32 324 -41 324 C-40.92652344 325.50433594 -40.92652344 325.50433594 -40.8515625 327.0390625 C-41.01087375 331.29015733 -41.90718922 334.39579043 -43.375 338.375 C-44.03628906 340.21191406 -44.03628906 340.21191406 -44.7109375 342.0859375 C-46 345 -46 345 -48 346 C-50.37580795 346.25273101 -52.73389201 346.45325539 -55.11621094 346.61669922 C-55.85300111 346.67059877 -56.58979128 346.72449833 -57.34890842 346.7800312 C-59.81045331 346.95901944 -62.27238934 347.13187617 -64.734375 347.3046875 C-66.46862689 347.4294302 -68.202854 347.55451797 -69.9370575 347.67993164 C-74.58163392 348.01460935 -79.22658554 348.3437692 -83.87165451 348.67153168 C-87.69511316 348.94180942 -91.51837521 349.21481458 -95.34164715 349.48771858 C-107.22702821 350.33570765 -119.11325863 351.17131376 -131 352 C-131.73355461 352.05117981 -132.46710922 352.10235962 -133.22289276 352.15509033 C-140.69168807 352.67588399 -148.16084828 353.19042835 -155.63122559 353.68804932 C-157.477899 353.81107252 -159.32450001 353.9351883 -161.17102051 354.06048584 C-187.34554639 355.82722681 -187.34554639 355.82722681 -191 354 C-189.6545233 350.34665136 -188.00712512 347.23905364 -185.8828125 343.98046875 C-185.27566406 343.04009766 -184.66851562 342.09972656 -184.04296875 341.13085938 C-183.09357422 339.67389648 -183.09357422 339.67389648 -182.125 338.1875 C-178.46097179 332.56302782 -174.88763729 327.03209722 -171.98828125 320.97241211 C-170.03707119 317.07818631 -167.71485008 313.39702975 -165.4375 309.6875 C-164.95603516 308.89021484 -164.47457031 308.09292969 -163.97851562 307.27148438 C-163.2756543 306.12196289 -163.2756543 306.12196289 -162.55859375 304.94921875 C-162.13892334 304.26174561 -161.71925293 303.57427246 -161.28686523 302.8659668 C-160.00693864 301.0100611 -158.59175011 299.58696449 -157 298 C-155.57086214 295.60088503 -154.20660558 293.20188673 -152.875 290.75 C-149.79103213 285.16193934 -146.62661903 279.64226722 -143.3125 274.1875 C-138.92281564 266.94333697 -134.7545919 259.59649988 -131 252 C-130.34 252 -129.68 252 -129 252 C-128.72671875 251.27039063 -128.4534375 250.54078125 -128.171875 249.7890625 C-127.0527458 247.125535 -125.77379707 244.82454475 -124.25 242.375 C-121.62218038 238.06689188 -119.16651805 233.6976139 -116.76953125 229.2578125 C-114.51930307 225.11500831 -112.2294843 220.99481213 -109.9375 216.875 C-109.3202002 215.76511719 -109.3202002 215.76511719 -108.69042969 214.6328125 C-107.87401387 213.16521563 -107.05703872 211.69792976 -106.23950195 210.23095703 C-105.39046926 208.70279853 -104.54544839 207.17240613 -103.70385742 205.64013672 C-101.40340337 201.46073903 -99.02199327 197.38761372 -96.4375 193.375 C-92.06953641 186.34505105 -88.30295674 179.03897273 -84.51586914 171.68359375 C-81.07880337 165.02041901 -77.52310142 158.44782756 -73.76586914 151.9597168 C-71.89963283 148.71461092 -70.28754458 145.51751869 -69 142 C-68.34 142 -67.68 142 -67 142 C-66.76152344 141.34773437 -66.52304688 140.69546875 -66.27734375 140.0234375 C-64.61353567 136.08524957 -62.58829111 132.38679242 -60.5625 128.625 C-53.36786157 115.10253106 -46.57602559 101.33226121 -40.6875 87.1875 C-38.66221703 82.33610584 -36.28825669 77.99601982 -33.50390625 73.546875 C-28.89206453 65.73669109 -25.65609782 57.23482442 -22.47265625 48.76953125 C-19.59443817 41.27464314 -16.30761044 33.93766514 -13.11230469 26.57421875 C-12.07727055 24.17882808 -11.05573311 21.7782296 -10.0390625 19.375 C-7.14688181 12.58065848 -4.20152039 6.11130239 0 0 Z " fill="#025EB0" transform="translate(282,118)"/>
<path d="M0 0 C21.23321603 9.6257246 45.69310913 7.91784158 67.375 0.875 C68.035 0.875 68.695 0.875 69.375 0.875 C69.375 0.215 69.375 -0.445 69.375 -1.125 C73.37115702 -2.44940204 77.37252003 -3.75734349 81.375 -5.0625 C82.50035156 -5.43568359 83.62570312 -5.80886719 84.78515625 -6.19335938 C109.30020097 -14.1499967 131.71128794 -8.43047169 154.75 1.0625 C164.92314496 5.15840549 174.16039727 6.39609378 185.125 6.3125 C185.78531219 6.3111203 186.44562439 6.3097406 187.12594604 6.30831909 C197.24916982 6.26917402 205.86991154 5.28042018 215.375 1.875 C217.03530753 1.51131359 218.70057488 1.16687227 220.375 0.875 C220.375 0.215 220.375 -0.445 220.375 -1.125 C251.1102215 -11.4790493 273.58777861 -11.96041137 303.5625 1.125 C317.25231857 6.6389547 332.95866136 7.22868794 347.375 4.875 C347.705 6.195 348.035 7.515 348.375 8.875 C334.22490939 21.06207226 316.79161842 24.94115998 298.55761719 24.04785156 C293.61931938 23.65676489 289.0637309 22.40785433 284.375 20.875 C282.08368407 20.16553291 279.79201065 19.4572195 277.5 18.75 C276.47132813 18.41742187 275.44265625 18.08484375 274.3828125 17.7421875 C255.58076818 12.32133836 237.50784882 19.92518946 219.82348633 26.10742188 C209.0868095 29.81541671 199.54159064 31.22795362 188.14501953 31.19067383 C186.14219726 31.18752702 184.13939341 31.21180958 182.13671875 31.23632812 C166.78264581 31.24389171 153.20170213 27.0614625 138.8125 22.25 C136.53360609 21.49334827 134.25404277 20.73883348 131.97340393 19.98745728 C130.56988169 19.52453325 129.16741247 19.05839945 127.76622009 18.58847046 C113.83705444 13.9726916 101.43762046 15.14447671 87.82763672 20.01416016 C82.75140047 21.7958453 77.62079942 23.41447838 72.5 25.0625 C70.93100952 25.57973633 70.93100952 25.57973633 69.33032227 26.10742188 C57.49829556 29.9508327 46.69916779 31.2859497 34.3125 31.25 C33.5768985 31.24912384 32.841297 31.24824768 32.08340454 31.24734497 C21.02229824 31.20383939 10.89389102 30.56579421 0.375 26.875 C-0.40552734 26.60703613 -1.18605469 26.33907227 -1.99023438 26.06298828 C-5.41452968 24.88116943 -8.83205185 23.68195396 -12.24169922 22.45849609 C-34.8527754 14.37151504 -52.05503479 15.58714025 -74.66015625 23.04296875 C-90.39300502 27.45811603 -107.27275223 25.3519856 -121.796875 18.25390625 C-123.625 16.875 -123.625 16.875 -124.453125 14.77734375 C-124.50984375 14.14957031 -124.5665625 13.52179687 -124.625 12.875 C-122.76461764 11.01461764 -120.0428938 11.31660898 -117.54296875 10.97509766 C-104.72876091 9.21092964 -93.30727239 5.75164383 -81.578125 0.203125 C-77.91418909 -1.44467687 -74.19505147 -2.89371311 -70.4375 -4.3125 C-69.78402588 -4.56249756 -69.13055176 -4.81249512 -68.45727539 -5.07006836 C-45.58149373 -13.60417312 -21.75280448 -10.50135389 0 0 Z " fill="#065EB0" transform="translate(232.625,593.125)"/>
<path d="M0 0 C2.02045442 0.60183749 4.02111039 1.27306096 6 2 C6.33 2.66 6.66 3.32 7 4 C5.35 3.67 3.7 3.34 2 3 C1.99576806 4.1234721 1.99153612 5.2469442 1.98717594 6.40446091 C1.88354405 33.86167165 1.77474365 61.31885832 1.66066074 88.77602768 C1.60560613 102.05461624 1.55217292 115.33320572 1.50268555 128.61181641 C1.45950028 140.19828365 1.41314161 151.78473332 1.36312145 163.37117314 C1.33679356 169.49439869 1.31195324 175.61762138 1.29092598 181.74086761 C1.03128454 256.41709045 1.03128454 256.41709045 -2 273 C-2.66 273.33 -3.32 273.66 -4 274 C-3.85665081 270.66655525 -3.70981478 267.33327166 -3.5625 264 C-3.52318359 263.08476562 -3.48386719 262.16953125 -3.44335938 261.2265625 C-3.25720326 257.0452097 -3.06493665 252.86959209 -2.75322628 248.69535637 C-1.87069218 236.70468928 -1.87972105 224.75288738 -1.91821289 212.73486328 C-1.92177607 210.43035956 -1.92486011 208.12585506 -1.92750549 205.8213501 C-1.93401449 200.89209172 -1.94354524 195.96285205 -1.95540047 191.03360367 C-1.97379021 183.24383194 -1.98331612 175.45406455 -1.99131775 167.66427612 C-2.00318915 156.75192832 -2.01715666 145.83958677 -2.03442383 134.92724609 C-2.03551395 134.23701488 -2.03660407 133.54678367 -2.03772723 132.83563636 C-2.05338817 123.00776287 -2.07199869 113.17989704 -2.0917251 103.35203098 C-2.09311842 102.65755509 -2.09451173 101.9630792 -2.09594727 101.24755859 C-2.0973408 100.55393601 -2.09873433 99.86031343 -2.10017008 99.14567198 C-2.12317678 87.59417287 -2.1383912 76.04268184 -2.14750665 64.49116313 C-2.15405978 56.74094531 -2.16963664 48.99081368 -2.19182408 41.24062562 C-2.20351173 36.43756734 -2.20691888 31.63453032 -2.20792198 26.83145905 C-2.21007799 24.59727497 -2.21569865 22.36309128 -2.2249527 20.12892532 C-2.23705356 17.09133773 -2.23700155 14.05399206 -2.23377991 11.01638794 C-2.24354161 9.67577449 -2.24354161 9.67577449 -2.25350052 8.30807793 C-2.22821578 2.22821578 -2.22821578 2.22821578 0 0 Z " fill="#598FC7" transform="translate(299,26)"/>
<path d="M0 0 C0.66 0 1.32 0 2 0 C1.36492112 45.74149703 0.70246661 91.46429123 -4 137 C-4.66 137 -5.32 137 -6 137 C-5.97679687 137.54785156 -5.95359375 138.09570312 -5.9296875 138.66015625 C-5.74927655 146.58535134 -6.83193756 154.17815332 -8 162 C-8.33 162 -8.66 162 -9 162 C-9.26952779 154.07588291 -8.33266669 146.36114511 -7.40444946 138.51025391 C-5.16174504 119.36754587 -3.83692763 100.25053272 -3 81 C-2.9474707 79.81728516 -2.89494141 78.63457031 -2.84082031 77.41601562 C-2.30616403 64.92156477 -2.00050522 52.42471044 -1.75390625 39.921875 C-1.73267197 38.86059387 -1.71143768 37.79931274 -1.68955994 36.70587158 C-1.58330914 31.3629313 -1.48279207 26.0199894 -1.39233398 20.67675781 C-1.35541949 18.70116975 -1.31839636 16.72558372 -1.28125 14.75 C-1.26095482 13.38473175 -1.26095482 13.38473175 -1.24024963 11.99188232 C-1.15895919 7.87905936 -1.02353838 4.01127593 0 0 Z " fill="#B7CFE6" transform="translate(286,121)"/>
<path d="M0 0 C-0.33 0.66 -0.66 1.32 -1 2 C-3.36328125 2.6328125 -3.36328125 2.6328125 -6.3125 3.125 C-7.27800781 3.29257812 -8.24351563 3.46015625 -9.23828125 3.6328125 C-12 4 -12 4 -16 4 C-11.8661288 8.62020899 -8.71665847 10.72813594 -2.44335938 11.18701172 C0.60295334 11.26980313 3.6401903 11.27255874 6.6875 11.25 C7.71294922 11.25773438 8.73839844 11.26546875 9.79492188 11.2734375 C18.96911784 11.2502557 27.32176499 9.98353015 36 7 C38.26347132 6.60148319 40.53517828 6.24721575 42.8125 5.9375 C46.72681211 5.71189223 46.72681211 5.71189223 50 4 C53.63841372 3.74419755 57.29118419 3.8147522 60.9375 3.8125 C61.94619141 3.80025391 62.95488281 3.78800781 63.99414062 3.77539062 C72.56526159 3.7588334 80.58217288 4.72076446 88.5625 8 C89.38878906 8.33 90.21507812 8.66 91.06640625 9 C93 10 93 10 94 12 C89.73071275 11.08515273 85.50681436 10.14006895 81.296875 8.9765625 C62.76909622 3.86325885 47.84231134 7.27145841 29.96484375 13.16796875 C14.23199498 17.58311603 -2.64775223 15.4769856 -17.171875 8.37890625 C-19 7 -19 7 -19.828125 4.90234375 C-19.88484375 4.27457031 -19.9415625 3.64679687 -20 3 C-18.08729676 1.08729676 -14.81562566 1.29679405 -12.25 0.9375 C-11.01765625 0.76089844 -9.7853125 0.58429687 -8.515625 0.40234375 C-5.62646814 0.0716958 -2.90083906 -0.08303929 0 0 Z " fill="#5F8BC5" transform="translate(128,603)"/>
<path d="M0 0 C0 0.66 0 1.32 0 2 C-3.70045375 2.38141692 -7.40091276 2.76278275 -11.10137558 3.14411163 C-12.47401913 3.2855658 -13.84666164 3.42703011 -15.21930313 3.56850433 C-23.5652464 4.42867737 -31.91129457 5.28781495 -40.25756836 6.14477539 C-43.3878632 6.46625874 -46.51815189 6.78780182 -49.6484375 7.109375 C-50.42949167 7.18959837 -51.21054585 7.26982174 -52.01526833 7.35247612 C-61.18319627 8.29442813 -70.35030829 9.24337896 -79.51591492 10.20768738 C-83.99771385 10.67892138 -88.47991998 11.14620413 -92.96218872 11.61294556 C-95.01047729 11.82736956 -97.05855861 12.04378367 -99.10641479 12.26229858 C-119.0456428 14.38875078 -119.0456428 14.38875078 -128 14 C-128 13.34 -128 12.68 -128 12 C-126.76210724 11.87916046 -125.52421448 11.75832092 -124.24880981 11.63381958 C-112.51080884 10.48783115 -100.7729326 9.34057249 -89.03517342 8.19211006 C-83.00251379 7.60189417 -76.96981298 7.01210638 -70.93701172 6.42333984 C-65.10135691 5.85379704 -59.2658186 5.28307371 -53.43035507 4.71157455 C-51.21798583 4.49510615 -49.0055768 4.27904385 -46.79312515 4.06341934 C-43.66421886 3.75840337 -40.5354396 3.45213051 -37.40673828 3.14501953 C-36.4249164 3.04882891 -35.44309452 2.95263828 -34.43152046 2.85353279 C-29.87857449 2.40273361 -25.32965315 1.93202983 -20.78460693 1.40716553 C-19.97189268 1.31344099 -19.15917843 1.21971645 -18.32183647 1.12315178 C-16.83962744 0.9497916 -15.35787801 0.77242141 -13.87678719 0.5897541 C-9.2100492 0.04019135 -4.68899417 -0.07125659 0 0 Z " fill="#AEC8E2" transform="translate(426,488)"/>
<path d="M0 0 C0.33 0 0.66 0 1 0 C0.44673265 8.51205622 -0.97016449 16.71447719 -2.6875 25.0625 C-2.95566632 26.38118113 -3.22381378 27.69986609 -3.49194336 29.01855469 C-6.82171076 45.28861351 -10.44524774 61.5040549 -14.6875 77.5625 C-14.87771729 78.31305664 -15.06793457 79.06361328 -15.26391602 79.83691406 C-15.82421875 81.87890625 -15.82421875 81.87890625 -17 85 C-18.485 85.495 -18.485 85.495 -20 86 C-20 84.68 -20 83.36 -20 82 C-19.34 82 -18.68 82 -18 82 C-17.88068115 80.88286621 -17.7613623 79.76573242 -17.63842773 78.61474609 C-17.02304454 73.71198492 -15.93210356 68.96597977 -14.78515625 64.1640625 C-14.5693541 63.24466888 -14.35355194 62.32527527 -14.13121033 61.37802124 C-13.44554278 58.4594119 -12.75435666 55.54214781 -12.0625 52.625 C-11.37508675 49.71479745 -10.68890039 46.80431501 -10.00450134 43.8934021 C-9.5801481 42.08974065 -9.15397587 40.28650575 -8.7256012 38.48379517 C-6.05162634 28.09900494 -6.05162634 28.09900494 -5 17.5 C-5 12.84219844 -4.02058659 8.52885299 -3 4 C-2.34 4 -1.68 4 -1 4 C-0.67 2.68 -0.34 1.36 0 0 Z " fill="#BACDE7" transform="translate(268,333)"/>
<path d="M0 0 C0.33 0 0.66 0 1 0 C1.04696041 16.88250912 1.08210558 33.76499752 1.10362434 50.64755726 C1.11388656 58.48844921 1.12784872 66.32930031 1.15087891 74.17016602 C1.17096916 81.01343383 1.18375304 87.85667202 1.18817699 94.69996852 C1.19075824 98.31510541 1.19671632 101.93015766 1.21146011 105.54526711 C1.31289552 131.4779664 1.31289552 131.4779664 0.11279297 143.3581543 C0.03508226 144.13855229 -0.04262844 144.91895029 -0.12269402 145.72299671 C-0.33427096 147.49354422 -0.65494202 149.25056058 -1 151 C-1.66 151.33 -2.32 151.66 -3 152 C-2.85665081 148.66655525 -2.70981478 145.33327166 -2.5625 142 C-2.52318359 141.08476562 -2.48386719 140.16953125 -2.44335938 139.2265625 C-2.25890017 135.08332503 -2.07065744 130.94523312 -1.76147461 126.80908203 C-0.79748529 113.71646892 -0.77406184 100.62264773 -0.68359375 87.5 C-0.66298058 84.96695653 -0.64198311 82.43391617 -0.62062073 79.90087891 C-0.57142154 73.95863417 -0.52604319 68.01636837 -0.48259836 62.07407951 C-0.43283461 55.2975091 -0.37806451 48.52098185 -0.32291877 41.74445343 C-0.20979354 27.82967608 -0.10280939 13.91485712 0 0 Z " fill="#F1F7FB" transform="translate(298,148)"/>
<path d="M0 0 C2.6381506 1.0572935 5.31780616 1.95685655 8.02734375 2.8125 C6.70734375 3.4725 5.38734375 4.1325 4.02734375 4.8125 C3.53234375 3.8225 3.53234375 3.8225 3.02734375 2.8125 C1.16233176 2.14004223 1.16233176 2.14004223 -1.22265625 1.625 C-8.00659656 -0.09988128 -14.57861761 -2.3682763 -21.18261719 -4.67456055 C-43.37154317 -12.26693097 -62.79184424 -9.43566674 -84.1796875 -1.04296875 C-86.97265625 -0.1875 -86.97265625 -0.1875 -89.97265625 -1.1875 C-89.31265625 -1.1875 -88.65265625 -1.1875 -87.97265625 -1.1875 C-87.97265625 -1.8475 -87.97265625 -2.5075 -87.97265625 -3.1875 C-83.97649923 -4.51190204 -79.97513622 -5.81984349 -75.97265625 -7.125 C-74.84730469 -7.49818359 -73.72195313 -7.87136719 -72.5625 -8.25585938 C-46.97792218 -16.55962586 -23.9269248 -9.81617428 0 0 Z " fill="#B6D0E6" transform="translate(389.97265625,595.1875)"/>
<path d="M0 0 C0.33 0 0.66 0 1 0 C4.62712614 23.21360731 6.18820717 45.89305126 6.25 69.375 C6.25526703 70.42605927 6.26053406 71.47711853 6.26596069 72.56002808 C6.27762456 75.5688055 6.27437815 78.57715754 6.265625 81.5859375 C6.26957779 82.50567856 6.27353058 83.42541962 6.27760315 84.37303162 C6.26829018 85.63930138 6.26829018 85.63930138 6.25878906 86.93115234 C6.25719788 87.67150726 6.25560669 88.41186218 6.25396729 89.1746521 C6 91 6 91 4 93 C3.96241577 91.22677368 3.96241577 91.22677368 3.92407227 89.41772461 C3.3921733 62.92343988 3.3921733 62.92343988 2.5625 36.4375 C2.52201538 35.16990845 2.52201538 35.16990845 2.48071289 33.87670898 C2.30617301 29.79532202 1.83900885 25.97582886 0.97265625 21.98046875 C-0.0491537 17.21526617 -0.23698188 12.73329075 -0.125 7.875 C-0.11597656 7.10929687 -0.10695313 6.34359375 -0.09765625 5.5546875 C-0.07450995 3.70298353 -0.03866126 1.85144501 0 0 Z " fill="#7197C9" transform="translate(511,367)"/>
<path d="M0 0 C0 0.33 0 0.66 0 1 C-1.17369141 1.09087891 -1.17369141 1.09087891 -2.37109375 1.18359375 C-3.88896484 1.30927734 -3.88896484 1.30927734 -5.4375 1.4375 C-6.44683594 1.51871094 -7.45617187 1.59992188 -8.49609375 1.68359375 C-10.93640779 1.73211468 -10.93640779 1.73211468 -12 3 C-13.40411317 3.0954693 -14.81299809 3.12188529 -16.22035217 3.12025452 C-17.13045547 3.12162918 -18.04055878 3.12300385 -18.97824097 3.12442017 C-19.98452545 3.12082489 -20.99080994 3.11722961 -22.02758789 3.11352539 C-23.08111954 3.11367142 -24.13465118 3.11381744 -25.22010803 3.1139679 C-28.720978 3.11326826 -32.22179552 3.10547348 -35.72265625 3.09765625 C-38.14261343 3.09579225 -40.56257099 3.09436826 -42.98252869 3.09336853 C-49.36615024 3.08954192 -55.74974921 3.07971041 -62.13336182 3.06866455 C-68.64163914 3.05845351 -75.1499201 3.05387157 -81.65820312 3.04882812 C-94.43881175 3.03808827 -107.21940467 3.02120112 -120 3 C-120 2.67 -120 2.34 -120 2 C-119.06579727 1.98969254 -118.13159454 1.97938507 -117.16908264 1.96876526 C-108.24412352 1.86981671 -99.31921567 1.76700041 -90.39434147 1.66066074 C-85.80905564 1.60614438 -81.22376327 1.55286195 -76.63842773 1.50268555 C-58.06649412 1.29865067 -39.5135655 1.08756306 -20.95898438 0.20507812 C-13.97345112 -0.11626569 -6.99113017 -0.09377075 0 0 Z " fill="#B9D0E6" transform="translate(207,509)"/>
<path d="M0 0 C-1.32 0.33 -2.64 0.66 -4 1 C-4 1.66 -4 2.32 -4 3 C-5.11375 3.29132812 -6.2275 3.58265625 -7.375 3.8828125 C-15.15454727 5.95907578 -22.75576795 8.16884908 -30.25 11.125 C-46.69424449 17.48349493 -63.7630977 19.25227546 -81 15 C-81 14.67 -81 14.34 -81 14 C-79.68902344 14.0628418 -79.68902344 14.0628418 -78.3515625 14.12695312 C-59.67286395 14.90033739 -44.08074566 14.2609249 -26.51660156 7.01757812 C-22.81725992 5.52176361 -19.04501941 4.28963485 -15.25 3.0625 C-14.12078125 2.68222656 -12.9915625 2.30195312 -11.828125 1.91015625 C-7.68776908 0.57769364 -4.36529051 -0.12125807 0 0 Z " fill="#B0C9E3" transform="translate(329,564)"/>
<path d="M0 0 C10.53998493 -0.3025833 20.36031246 1.80047571 30.32421875 5.0546875 C31.10667969 5.30750488 31.88914062 5.56032227 32.6953125 5.82080078 C33.43136719 6.07200684 34.16742188 6.32321289 34.92578125 6.58203125 C35.58143066 6.8049585 36.23708008 7.02788574 36.91259766 7.25756836 C38.9522898 8.23895071 40.1933195 9.4446447 41.69921875 11.1171875 C35.11832324 9.8245116 28.82528957 7.96943602 22.4609375 5.88208008 C4.14827412 -0.03587254 -13.76467457 3.31288016 -31.1640625 10.48046875 C-33.30078125 11.1171875 -33.30078125 11.1171875 -36.30078125 10.1171875 C-25.33569 3.81809253 -12.54946775 0.63919191 0 0 Z " fill="#BED6E9" transform="translate(189.30078125,582.8828125)"/>
<path d="M0 0 C0 0.33 0 0.66 0 1 C-1.98 1 -3.96 1 -6 1 C-6 1.66 -6 2.32 -6 3 C-7.11375 3.29132812 -8.2275 3.58265625 -9.375 3.8828125 C-17.15463498 5.95909919 -24.75547835 8.16946623 -32.25 11.125 C-42.9778081 15.26399296 -53.1115282 17.24010124 -64.625 17.3125 C-65.9238916 17.32095947 -65.9238916 17.32095947 -67.24902344 17.32958984 C-71.46006341 17.28062426 -74.27094595 17.11144946 -78 15 C-76.43765625 15.05220703 -76.43765625 15.05220703 -74.84375 15.10546875 C-73.39584987 15.1336746 -71.94793175 15.16096722 -70.5 15.1875 C-69.82324219 15.21263672 -69.14648438 15.23777344 -68.44921875 15.26367188 C-54.20523705 15.45615811 -40.58177514 10.86938009 -27.25 6.375 C-24.97416461 5.61864214 -22.6973946 4.86516337 -20.42034912 4.11245728 C-19.02151271 3.64891911 -17.62354682 3.18274252 -16.22662354 2.71347046 C-10.47017624 0.78657178 -6.10647826 -0.11743227 0 0 Z " fill="#B8CDE5" transform="translate(482,564)"/>
<path d="M0 0 C0.85086182 0.30881104 1.70172363 0.61762207 2.57836914 0.93579102 C8.68438925 3.24377849 8.68438925 3.24377849 9.8125 5.5 C5.15395967 4.86409495 0.99229222 3.62404809 -3.4375 2.0625 C-23.79209409 -4.85519096 -41.78121079 -2.48188519 -62.1875 3.5 C-62.5175 2.84 -62.8475 2.18 -63.1875 1.5 C-60.04574591 0.5074141 -56.8984897 -0.466512 -53.75 -1.4375 C-52.87150391 -1.71529297 -51.99300781 -1.99308594 -51.08789062 -2.27929688 C-33.73999445 -7.59249017 -16.90668432 -6.14430919 0 0 Z " fill="#C8DBEC" transform="translate(522.1875,588.5)"/>
<path d="M0 0 C0.66 0 1.32 0 2 0 C1.29455205 6.53467572 -0.45320261 12.68943551 -2.25 19 C-2.72034668 20.66144043 -2.72034668 20.66144043 -3.20019531 22.35644531 C-9.60829294 44.7880598 -9.60829294 44.7880598 -12.6171875 49.5703125 C-14.17771147 52.3122501 -14.32726437 54.0030898 -14.375 57.125 C-14.55078125 59.75 -14.55078125 59.75 -15 62 C-17.5625 64.125 -17.5625 64.125 -20 65 C-19.31645957 61.00338094 -18.13837821 57.37775749 -16.7421875 53.57421875 C-16.27941532 52.30075283 -15.81702879 51.02714671 -15.35498047 49.75341797 C-15.11309998 49.08969177 -14.87121948 48.42596558 -14.62200928 47.74212646 C-6.03784028 24.24008632 -6.03784028 24.24008632 0 0 Z " fill="#B6CDE4" transform="translate(277,390)"/>
<path d="M0 0 C0.75796875 0.13277344 1.5159375 0.26554688 2.296875 0.40234375 C7.27085418 1.20510621 12.25681583 1.8909585 17.25 2.5625 C18.72919922 2.77036133 18.72919922 2.77036133 20.23828125 2.98242188 C26.53439566 3.82439238 32.64958606 4.18086622 39 4 C39 3.67 39 3.34 39 3 C43.95 3 48.9 3 54 3 C47.35565666 7.42956223 39.20971113 7.38806601 31.4375 7.375 C30.48311035 7.37411377 29.5287207 7.37322754 28.54541016 7.37231445 C19.05587026 7.21582363 7.46073722 6.47710769 0 0 Z " fill="#7BA0CF" transform="translate(74,579)"/>
<path d="M0 0 C0.66 0 1.32 0 2 0 C1.90731437 7.66826404 1.79995641 15.33622428 1.68261719 23.00415039 C1.64444245 25.61022334 1.60956994 28.21634692 1.578125 30.82250977 C1.53222438 34.57847123 1.47427082 38.33408764 1.4140625 42.08984375 C1.40251129 43.24645004 1.39096008 44.40305634 1.37905884 45.5947113 C1.26301658 52.02158789 0.64064169 57.77995318 -1 64 C-1.33 64 -1.66 64 -2 64 C-1.89231222 56.39362352 -1.77964162 48.78733458 -1.66066074 41.18112659 C-1.60556493 37.64902064 -1.55216687 34.11690622 -1.50268555 30.5847168 C-1.44568633 26.52123332 -1.38123675 22.45789738 -1.31640625 18.39453125 C-1.29969376 17.1297847 -1.28298126 15.86503815 -1.26576233 14.56196594 C-1.24581711 13.38111923 -1.22587189 12.20027252 -1.20532227 10.98364258 C-1.18977798 9.94661697 -1.1742337 8.90959137 -1.15821838 7.84114075 C-1.00743096 5.13343836 -0.60489118 2.63977491 0 0 Z " fill="#BFD0E6" transform="translate(286,121)"/>
<path d="M0 0 C-0.33 0.66 -0.66 1.32 -1 2 C-3.74670196 2.45530379 -6.421484 2.79808451 -9.1875 3.0625 C-10.70196059 3.21872313 -12.21628707 3.37625253 -13.73046875 3.53515625 C-14.81787354 3.64754639 -14.81787354 3.64754639 -15.92724609 3.76220703 C-18.63691347 4.07306875 -21.31631355 4.51633721 -24 5 C-24 5.33 -24 5.66 -24 6 C-35.03094451 7.48449564 -45.93380813 6.68580531 -57 6 C-57 5.67 -57 5.34 -57 5 C-50.1687252 4.28215757 -43.33679995 3.57076911 -36.50439453 2.86376953 C-34.18230127 2.62272739 -31.86035834 2.38023233 -29.53857422 2.13623047 C-26.19277209 1.78487105 -22.84645628 1.43881651 -19.5 1.09375 C-18.4694751 0.9843811 -17.4389502 0.87501221 -16.37719727 0.7623291 C-10.88297714 0.20134886 -5.52268063 -0.11505585 0 0 Z " fill="#87ACD4" transform="translate(484,482)"/>
<path d="M0 0 C1.05904289 0.00212242 1.05904289 0.00212242 2.13948059 0.00428772 C4.39120751 0.00987861 6.64283446 0.02242937 8.89453125 0.03515625 C10.4225246 0.04017243 11.95051952 0.04473513 13.47851562 0.04882812 C17.2213926 0.05984505 20.96419498 0.07710338 24.70703125 0.09765625 C24.70703125 0.42765625 24.70703125 0.75765625 24.70703125 1.09765625 C17.4827646 1.62427356 10.25817157 2.14615619 3.0331459 2.66226196 C-0.32296003 2.90214272 -3.67894005 3.14355533 -7.03466797 3.38867188 C-10.90694756 3.67071082 -14.77959189 3.94718724 -18.65234375 4.22265625 C-19.83721375 4.31015137 -21.02208374 4.39764648 -22.24285889 4.48779297 C-29.60677562 5.00496982 -36.91150686 5.20349269 -44.29296875 5.09765625 C-44.29296875 4.76765625 -44.29296875 4.43765625 -44.29296875 4.09765625 C-43.33583984 4.00677734 -43.33583984 4.00677734 -42.359375 3.9140625 C-41.11994141 3.78837891 -41.11994141 3.78837891 -39.85546875 3.66015625 C-38.61990234 3.53833984 -38.61990234 3.53833984 -37.359375 3.4140625 C-35.3063485 3.3083481 -35.3063485 3.3083481 -34.29296875 2.09765625 C-32.54912774 1.95205472 -30.79985669 1.87040956 -29.05078125 1.81640625 C-27.98472656 1.77902344 -26.91867188 1.74164063 -25.8203125 1.703125 C-24.69753906 1.66832031 -23.57476562 1.63351562 -22.41796875 1.59765625 C-20.21210901 1.52880282 -18.00636621 1.45606182 -15.80078125 1.37890625 C-14.8173877 1.34861328 -13.83399414 1.31832031 -12.82080078 1.28710938 C-8.44501001 0.95915751 -4.48926293 -0.0338512 0 0 Z " fill="#96B6D9" transform="translate(183.29296875,464.90234375)"/>
<path d="M0 0 C2.1953125 0.94921875 2.1953125 0.94921875 4.1953125 3.94921875 C-5.8046875 1.94921875 -5.8046875 1.94921875 -8.16015625 1.3984375 C-11.58507538 0.81665655 -14.96512857 0.71610698 -18.4296875 0.69921875 C-19.13246826 0.695271 -19.83524902 0.69132324 -20.55932617 0.68725586 C-25.90674902 0.74643441 -30.59082991 1.641228 -35.66796875 3.390625 C-37.8046875 3.94921875 -37.8046875 3.94921875 -40.8046875 2.94921875 C-40.4746875 2.28921875 -40.1446875 1.62921875 -39.8046875 0.94921875 C-38.8146875 0.94921875 -37.8246875 0.94921875 -36.8046875 0.94921875 C-36.8046875 0.28921875 -36.8046875 -0.37078125 -36.8046875 -1.05078125 C-27.55178011 -5.67723495 -9.77810838 -2.46408331 0 0 Z " fill="#9FBADA" transform="translate(360.8046875,608.05078125)"/>
<path d="M0 0 C-0.33 0.66 -0.66 1.32 -1 2 C-3.69319882 2.46696438 -6.30819017 2.80558305 -9.0234375 3.0703125 C-10.24735703 3.19924393 -10.24735703 3.19924393 -11.4960022 3.33078003 C-13.23238925 3.51161275 -14.96926174 3.68783304 -16.70654297 3.85986328 C-19.33040144 4.12056871 -21.95223829 4.39688932 -24.57421875 4.67578125 C-33.06395925 5.55705025 -41.45159595 6.32831708 -50 6 C-50 5.34 -50 4.68 -50 4 C-44.32632366 3.42463696 -38.65209523 2.85518548 -32.97729492 2.29101562 C-31.0500519 2.09859803 -29.12296455 1.90461407 -27.19604492 1.70898438 C-24.41365162 1.42678562 -21.6307324 1.15037303 -18.84765625 0.875 C-17.99728287 0.78750488 -17.14690948 0.70000977 -16.27076721 0.60986328 C-10.81982939 0.0776237 -5.47717947 -0.07710943 0 0 Z " fill="#C9DBEB" transform="translate(348,496)"/>
<path d="M0 0 C1.19477107 3.5170771 1.03525627 3.92305445 -0.6484375 7.59765625 C-1.21062988 8.64203857 -1.21062988 8.64203857 -1.78417969 9.70751953 C-3.97495912 13.83832653 -5.76956204 18.14834592 -7.625 22.4375 C-8.21667969 23.77264648 -8.21667969 23.77264648 -8.8203125 25.13476562 C-11.23499589 30.71872097 -12.86849117 36.02003669 -14 42 C-15.98 42.495 -15.98 42.495 -18 43 C-17.30531589 38.04789473 -15.33941718 33.74091828 -13.375 29.1875 C-13.02034668 28.35669922 -12.66569336 27.52589844 -12.30029297 26.66992188 C-11.20548064 24.11097468 -10.10324373 21.55532169 -9 19 C-8.49049805 17.81204834 -8.49049805 17.81204834 -7.97070312 16.60009766 C-7.02620009 14.39828341 -6.07688026 12.1986337 -5.125 10 C-4.83931152 9.33637451 -4.55362305 8.67274902 -4.25927734 7.98901367 C-3.00999894 5.12811368 -1.73828516 2.60742774 0 0 Z " fill="#B5CDE5" transform="translate(279,123)"/>
<path d="M0 0 C1.00869141 -0.01224609 2.01738281 -0.02449219 3.05664062 -0.03710938 C11.62776159 -0.0536666 19.64467288 0.90826446 27.625 4.1875 C28.45128906 4.5175 29.27757812 4.8475 30.12890625 5.1875 C32.0625 6.1875 32.0625 6.1875 33.0625 8.1875 C28.79321275 7.27265273 24.56931436 6.32756895 20.359375 5.1640625 C8.24507173 1.82387428 -2.09950896 0.93240358 -14.37890625 4.53125 C-16.9375 5.1875 -16.9375 5.1875 -20.9375 5.1875 C-20.9375 4.5275 -20.9375 3.8675 -20.9375 3.1875 C-19.98037109 2.98833984 -19.98037109 2.98833984 -19.00390625 2.78515625 C-18.17761719 2.60855469 -17.35132813 2.43195312 -16.5 2.25 C-15.67628906 2.07597656 -14.85257813 1.90195312 -14.00390625 1.72265625 C-9.19614111 0.47754505 -5.38677156 0.00332722 0 0 Z " fill="#ACC6E0" transform="translate(188.9375,606.8125)"/>
<path d="M0 0 C-1.30310601 2.60621202 -2.93062726 3.31391669 -5.57470703 4.38476562 C-11.05910774 5.77601686 -16.82010581 5.33992327 -22.4375 5.25 C-23.72205078 5.24484375 -25.00660156 5.2396875 -26.33007812 5.234375 C-32.63459184 5.1824058 -38.76874524 4.97683387 -45 4 C-45 3.67 -45 3.34 -45 3 C-44.15405273 2.98541748 -43.30810547 2.97083496 -42.43652344 2.95581055 C-39.23793341 2.89403052 -36.03992226 2.81975416 -32.84179688 2.73754883 C-31.46885756 2.70469956 -30.09579613 2.67654933 -28.72265625 2.65356445 C-20.5760275 2.51361871 -13.18428828 1.90370207 -5.36425781 -0.46557617 C-3 -1 -3 -1 0 0 Z " fill="#7DA6D3" transform="translate(448,597)"/>
<path d="M0 0 C0.98097656 0.144375 1.96195313 0.28875 2.97265625 0.4375 C15.00258339 2.12451401 26.92895238 2.97078328 39 1 C39.495 2.98 39.495 2.98 40 5 C30.57142857 13 30.57142857 13 26 13 C26.25 11.1015625 26.25 11.1015625 27 9 C28.8125 8.0234375 28.8125 8.0234375 31 7.375 C33.1432966 6.75580781 33.1432966 6.75580781 35 6 C35.33 5.34 35.66 4.68 36 4 C35.40687012 4.01571045 34.81374023 4.0314209 34.20263672 4.04760742 C22.37159545 4.31894057 11.46196697 4.28602466 0 1 C0 0.67 0 0.34 0 0 Z " fill="#B4CEE4" transform="translate(541,597)"/>
<path d="M0 0 C0 0.66 0 1.32 0 2 C-0.83660156 2.2266333 -1.67320312 2.4532666 -2.53515625 2.68676758 C-5.67450662 3.53918117 -8.81289024 4.39504802 -11.95068359 5.25317383 C-13.30220096 5.62204758 -14.65408225 5.9895909 -16.00634766 6.35571289 C-24.9509996 8.73148069 -24.9509996 8.73148069 -33.6875 11.76171875 C-37 13 -37 13 -41 13 C-41 12.34 -41 11.68 -41 11 C-39.35 10.67 -37.7 10.34 -36 10 C-36 9.34 -36 8.68 -36 8 C-35.41009277 7.89187988 -34.82018555 7.78375977 -34.21240234 7.67236328 C-26.57259148 6.21538588 -19.15750069 4.1691403 -11.68359375 2.03515625 C-10.74902344 1.77347656 -9.81445312 1.51179688 -8.8515625 1.2421875 C-8.01447754 1.0035498 -7.17739258 0.76491211 -6.31494141 0.51904297 C-4 0 -4 0 0 0 Z " fill="#A8C5E2" transform="translate(295,475)"/>
<path d="M0 0 C1.52548462 0.00809692 1.52548462 0.00809692 3.08178711 0.01635742 C13.69775445 0.22963779 22.47136409 2.53800912 31.9375 7.4375 C32.72125 7.829375 33.505 8.22125 34.3125 8.625 C34.84875 8.893125 35.385 9.16125 35.9375 9.4375 C30.25244136 8.87789691 25.21526135 7.75924034 19.8125 5.9375 C9.09255378 2.36418459 -1.07709886 0.94821706 -12.08984375 4.09765625 C-14.3680968 4.49014737 -15.8792475 4.13594543 -18.0625 3.4375 C-11.9906663 0.2537986 -6.79484919 -0.06851106 0 0 Z " fill="#96BADA" transform="translate(492.0625,606.5625)"/>
<path d="M0 0 C0.33 0 0.66 0 1 0 C1.1346906 6.94966093 0.75715004 13.71856383 0 20.625 C-0.09539062 21.53378906 -0.19078125 22.44257813 -0.2890625 23.37890625 C-0.52143768 25.58647043 -0.75846489 27.79342261 -1 30 C-1.66 30 -2.32 30 -3 30 C-2.97679687 30.54785156 -2.95359375 31.09570312 -2.9296875 31.66015625 C-2.74927655 39.58535134 -3.83193756 47.17815332 -5 55 C-5.33 55 -5.66 55 -6 55 C-6.07570944 49.04027077 -5.84989973 43.26449756 -5.1953125 37.34375 C-5.11127167 36.55657593 -5.02723083 35.76940186 -4.94064331 34.95837402 C-4.76309121 33.3077675 -4.58314343 31.65741703 -4.40087891 30.00732422 C-4.12576142 27.50692015 -3.86121982 25.00555153 -3.59765625 22.50390625 C-3.42250974 20.88795191 -3.24674887 19.27206402 -3.0703125 17.65625 C-2.99313995 16.92160522 -2.91596741 16.18696045 -2.8364563 15.43005371 C-2.24765283 10.19232156 -1.23090148 5.12351114 0 0 Z " fill="#DDEAF4" transform="translate(283,228)"/>
<path d="M0 0 C4.41661151 -0.05804281 8.83312496 -0.09361104 13.25 -0.125 C14.50425781 -0.14175781 15.75851562 -0.15851562 17.05078125 -0.17578125 C18.25605469 -0.18222656 19.46132813 -0.18867187 20.703125 -0.1953125 C21.81333008 -0.20578613 22.92353516 -0.21625977 24.06738281 -0.22705078 C26.93950942 -0.00468334 28.57223735 0.50718425 31 2 C24.97543118 3.73518687 19.50826755 4.3651754 13.25 4.375 C11.99509766 4.41173828 11.99509766 4.41173828 10.71484375 4.44921875 C9.90660156 4.45308594 9.09835937 4.45695313 8.265625 4.4609375 C7.17942871 4.47326416 7.17942871 4.47326416 6.07128906 4.48583984 C3.18391607 3.80858003 1.92048768 2.18394613 0 0 Z " fill="#5D8AC4" transform="translate(525,613)"/>
<path d="M0 0 C0.33 0 0.66 0 1 0 C1.37956489 26.03523187 1.37956489 26.03523187 0.125 38.125 C0.04652832 38.91688721 -0.03194336 39.70877441 -0.11279297 40.5246582 C-0.32800804 42.36100864 -0.65226966 44.18407487 -1 46 C-1.99 46.495 -1.99 46.495 -3 47 C-2.40729949 31.29343638 -1.34980208 15.65927591 0 0 Z " fill="#A4C1DF" transform="translate(298,253)"/>
<path d="M0 0 C6.32861646 0.54557038 11.68934537 2.10245256 17.625 4.3125 C25.6762837 7.22738783 33.72198646 9.79344341 42 12 C42 12.66 42 13.32 42 14 C35.21461332 13.47375379 29.51487297 11.56499593 23.1875 9.125 C16.55413745 6.59048919 10.02270648 4.36544955 3.1105957 2.70654297 C1 2 1 2 0 0 Z " fill="#CDDCED" transform="translate(361,565)"/>
<path d="M0 0 C6.93807302 0.52881654 12.94054947 2.03531084 19.5 4.3125 C20.38558594 4.60833984 21.27117187 4.90417969 22.18359375 5.20898438 C27.94129215 7.16626364 33.48849118 9.43183205 39 12 C35.52123912 13.21858845 33.64630195 12.78562515 30.25390625 11.453125 C29.33947754 11.10378906 28.42504883 10.75445313 27.48291016 10.39453125 C26.5191748 10.01683594 25.55543945 9.63914062 24.5625 9.25 C16.4353969 6.16615586 8.57266839 3.55278522 0 2 C0 1.34 0 0.68 0 0 Z " fill="#D7E4F1" transform="translate(208,565)"/>
<path d="M0 0 C-0.33 0.66 -0.66 1.32 -1 2 C-3.36328125 2.6328125 -3.36328125 2.6328125 -6.3125 3.125 C-7.27800781 3.29257812 -8.24351563 3.46015625 -9.23828125 3.6328125 C-12 4 -12 4 -16 4 C-11.79415459 9.18720934 -7.39456368 10.47275469 -1 12 C-1 12.33 -1 12.66 -1 13 C-5.87867023 13.32183132 -8.9611638 12.43921522 -13.3125 10.25 C-14.36050781 9.73953125 -15.40851563 9.2290625 -16.48828125 8.703125 C-19 7 -19 7 -19.91796875 4.859375 C-19.94503906 4.24578125 -19.97210938 3.6321875 -20 3 C-18.08729676 1.08729676 -14.81562566 1.29679405 -12.25 0.9375 C-11.01765625 0.76089844 -9.7853125 0.58429687 -8.515625 0.40234375 C-5.62646814 0.0716958 -2.90083906 -0.08303929 0 0 Z " fill="#8FABD4" transform="translate(128,603)"/>
<path d="M0 0 C11.1503907 1.72137368 21.46804284 5.91374848 31.8671875 10.15234375 C34.5427133 11.21569375 37.25505195 12.1331743 40 13 C38.02 13.99 38.02 13.99 36 15 C35.505 14.01 35.505 14.01 35 13 C32.83521834 12.22660304 32.83521834 12.22660304 30.1953125 11.62890625 C23.97471864 10.02797373 17.94054764 8.04402718 11.875 5.9375 C10.83601563 5.58623047 9.79703125 5.23496094 8.7265625 4.87304688 C7.74171875 4.53208984 6.756875 4.19113281 5.7421875 3.83984375 C4.8538623 3.53425537 3.96553711 3.22866699 3.05029297 2.91381836 C1 2 1 2 0 0 Z " fill="#CCDDED" transform="translate(358,585)"/>
<path d="M0 0 C1 2 1 2 -1 9 C7.25 9.33 15.5 9.66 24 10 C24 10.33 24 10.66 24 11 C-2.26666667 12.86666667 -2.26666667 12.86666667 -6 11 C-4.54955729 6.89041233 -2.48889248 3.56741255 0 0 Z " fill="#91B0D7" transform="translate(97,461)"/>
<path d="M0 0 C0.66 0 1.32 0 2 0 C1.690625 0.845625 1.38125 1.69125 1.0625 2.5625 C-0.01538821 6.0497854 -0.56581304 9.38177535 -1 13 C1.97 13.495 1.97 13.495 5 14 C1.31265242 16.45823172 -1.69699971 17.01242616 -6 18 C-7.15837626 13.94568308 -6.83691257 11.78187881 -5 8 C-4.34 8 -3.68 8 -3 8 C-2.690625 7.05125 -2.38125 6.1025 -2.0625 5.125 C-1 2 -1 2 0 0 Z " fill="#608AC3" transform="translate(246,475)"/>
<path d="M0 0 C0 0.33 0 0.66 0 1 C-4.4649644 1.71701829 -8.93070108 2.42893993 -13.3972168 3.13623047 C-14.91534135 3.37735674 -16.43324884 3.61985393 -17.95092773 3.86376953 C-20.1372959 4.21490699 -22.32440719 4.56104412 -24.51171875 4.90625 C-25.18587326 5.0156189 -25.86002777 5.12498779 -26.55461121 5.2376709 C-30.07128573 5.78747539 -33.44033184 6.11975334 -37 6 C-37.33 5.34 -37.66 4.68 -38 4 C-34.12823186 2.06411593 -29.35796042 2.52390435 -25.08984375 2.28125 C-22.13091514 2.34428075 -22.13091514 2.34428075 -21 1 C-14.01040833 -0.20973702 -7.07661086 -0.09708765 0 0 Z " fill="#A3C1DE" transform="translate(355,464)"/>
<path d="M0 0 C0.33 0.66 0.66 1.32 1 2 C0.01196289 4.33837891 0.01196289 4.33837891 -1.52734375 7.2265625 C-2.34428711 8.7734375 -2.34428711 8.7734375 -3.17773438 10.3515625 C-3.75845703 11.43179687 -4.33917969 12.51203125 -4.9375 13.625 C-5.51435547 14.71296875 -6.09121094 15.8009375 -6.68554688 16.921875 C-8.11662429 19.61845062 -9.55503159 22.31084969 -11 25 C-11.66 25 -12.32 25 -13 25 C-13.99 27.97 -14.98 30.94 -16 34 C-16.66 34 -17.32 34 -18 34 C-16.38116589 28.15099817 -13.46894657 23.18110461 -10.5 17.9375 C-9.50772257 16.17729728 -8.51805112 14.41562242 -7.53125 12.65234375 C-7.09361328 11.87882568 -6.65597656 11.10530762 -6.20507812 10.30834961 C-4.96017552 7.92371547 -3.95728152 5.51230871 -3 3 C-2.34 3 -1.68 3 -1 3 C-0.67 2.01 -0.34 1.02 0 0 Z " fill="#C3D7EA" transform="translate(216,257)"/>
<path d="M0 0 C0.33 0 0.66 0 1 0 C-0.40819182 19.49233937 -0.40819182 19.49233937 -5 25 C-5.2494783 17.70968976 -4.72330907 11.09326321 -3 4 C-2.34 4 -1.68 4 -1 4 C-0.67 2.68 -0.34 1.36 0 0 Z " fill="#6A96CA" transform="translate(268,333)"/>
<path d="M0 0 C0.33 0 0.66 0 1 0 C0.59067041 6.44694106 -0.44413832 12.58847029 -1.875 18.875 C-2.03645508 19.61226318 -2.19791016 20.34952637 -2.36425781 21.10913086 C-3.28935146 25.0326955 -4.25302862 28.00187695 -7 31 C-6.32963978 25.00131271 -5.3091726 19.15431558 -4.0625 13.25 C-3.89298828 12.41339844 -3.72347656 11.57679688 -3.54882812 10.71484375 C-3.37931641 9.90660156 -3.20980469 9.09835937 -3.03515625 8.265625 C-2.8844165 7.54149414 -2.73367676 6.81736328 -2.57836914 6.07128906 C-1.96410845 3.87146309 -1.08244282 2.00609346 0 0 Z " fill="#A9C2DF" transform="translate(264,355)"/>
<path d="M0 0 C0.33 0.66 0.66 1.32 1 2 C-0.0480957 4.38256836 -0.0480957 4.38256836 -1.67578125 7.33984375 C-2.25650391 8.40267578 -2.83722656 9.46550781 -3.43554688 10.56054688 C-4.36463867 12.23213867 -4.36463867 12.23213867 -5.3125 13.9375 C-5.92029297 15.04802734 -6.52808594 16.15855469 -7.15429688 17.30273438 C-11.61502259 25.42253389 -11.61502259 25.42253389 -14 29 C-14.66 29 -15.32 29 -16 29 C-12.99576459 18.34861992 -5.98706322 9.16972864 0 0 Z " fill="#A3C0DE" transform="translate(188,308)"/>
<path d="M0 0 C0 0.99 0 1.98 0 3 C-13.6332574 7.59225513 -13.6332574 7.59225513 -20 7 C-18 5 -18 5 -15.375 4.875 C-14.59125 4.91625 -13.8075 4.9575 -13 5 C-13 4.34 -13 3.68 -13 3 C-11.58603098 2.49242138 -10.16868271 1.99425075 -8.75 1.5 C-7.96109375 1.2215625 -7.1721875 0.943125 -6.359375 0.65625 C-4 0 -4 0 0 0 Z " fill="#6D96CA" transform="translate(168,610)"/>
<path d="M0 0 C0.33 0 0.66 0 1 0 C1.15366997 6.39651259 0.64846374 12.27698902 -0.5 18.5625 C-0.64308594 19.38041016 -0.78617187 20.19832031 -0.93359375 21.04101562 C-1.28228312 23.02854504 -1.64016085 25.01445896 -2 27 C-2.66 27 -3.32 27 -4 27 C-4 27.99 -4 28.98 -4 30 C-4.66 30 -5.32 30 -6 30 C-5.35928169 26.03217818 -4.63336918 22.09760684 -3.80859375 18.1640625 C-3.58623047 17.10058594 -3.36386719 16.03710938 -3.13476562 14.94140625 C-2.90466797 13.84699219 -2.67457031 12.75257813 -2.4375 11.625 C-2.20353516 10.50738281 -1.96957031 9.38976562 -1.72851562 8.23828125 C-1.15343078 5.49195771 -0.57722515 2.74587434 0 0 Z " fill="#8CAFD6" transform="translate(287,349)"/>
<path d="M0 0 C0.66 0 1.32 0 2 0 C1.3212527 6.19464308 -0.3042956 11.96939552 -2.0625 17.9375 C-2.48499023 19.3925293 -2.48499023 19.3925293 -2.91601562 20.87695312 C-3.60646466 23.25256591 -4.30122001 25.62682705 -5 28 C-5.66 28 -6.32 28 -7 28 C-5.31205041 18.48610229 -2.6488796 9.28118882 0 0 Z " fill="#D0E2F0" transform="translate(277,390)"/>
<path d="M0 0 C0 0.33 0 0.66 0 1 C-1.25296875 1.04898438 -2.5059375 1.09796875 -3.796875 1.1484375 C-5.44793821 1.22348583 -7.09897881 1.29903277 -8.75 1.375 C-9.9875 1.42140625 -9.9875 1.42140625 -11.25 1.46875 C-12.04921875 1.50742187 -12.8484375 1.54609375 -13.671875 1.5859375 C-14.77160645 1.63306885 -14.77160645 1.63306885 -15.89355469 1.68115234 C-18.25278858 2.03826401 -19.88555351 2.92554235 -22 4 C-22.99 4 -23.98 4 -25 4 C-25 4.66 -25 5.32 -25 6 C-26.98 6.33 -28.96 6.66 -31 7 C-30.67 5.68 -30.34 4.36 -30 3 C-19.388966 -0.50690911 -11.08543666 -1.44661017 0 0 Z " fill="#1859AD" transform="translate(499,606)"/>
<path d="M0 0 C3.60760558 2.71831819 6.45089815 5.5208883 9.25 9.0625 C9.93578125 9.91972656 10.6215625 10.77695312 11.328125 11.66015625 C13 14 13 14 14 17 C15.98045559 17.66179847 15.98045559 17.66179847 18 18 C19 19 19 19 19.0625 21.5625 C19.041875 22.366875 19.02125 23.17125 19 24 C17.68 23.67 16.36 23.34 15 23 C15.99 23 16.98 23 18 23 C18 22.34 18 21.68 18 21 C17.01 21 16.02 21 15 21 C13.45703125 19.3828125 13.45703125 19.3828125 11.8125 17.125 C8.50128035 12.66051367 5.04027399 8.35433602 1.50390625 4.06640625 C0 2 0 2 0 0 Z " fill="#BDD4E9" transform="translate(106,544)"/>
<path d="M0 0 C0 0.66 0 1.32 0 2 C-8.7419859 3.3213258 -17.137418 4.33165588 -26 4 C-26 3.34 -26 2.68 -26 2 C-23.16724047 1.66103732 -20.33395339 1.32870306 -17.5 1 C-16.31277344 0.85691406 -16.31277344 0.85691406 -15.1015625 0.7109375 C-10.02970596 0.12892118 -5.10506141 -0.09367085 0 0 Z " fill="#D2E3F0" transform="translate(586,470)"/>
<path d="M0 0 C0.33 0 0.66 0 1 0 C1.33 4.95 1.66 9.9 2 15 C1.34 15 0.68 15 0 15 C-0.03738281 15.83144531 -0.07476562 16.66289062 -0.11328125 17.51953125 C-0.17902344 18.60621094 -0.24476563 19.69289063 -0.3125 20.8125 C-0.37050781 21.89144531 -0.42851562 22.97039062 -0.48828125 24.08203125 C-1.05062685 27.28868896 -1.67211396 27.91059356 -4 30 C-3.37536408 23.08339065 -2.49987484 16.2372298 -1.4375 9.375 C-1.29892578 8.46621094 -1.16035156 7.55742187 -1.01757812 6.62109375 C-0.68066063 4.4137033 -0.34144335 2.20669409 0 0 Z " fill="#96B7DA" transform="translate(292,318)"/>
<path d="M0 0 C0.33 0 0.66 0 1 0 C1.50828443 3.35296491 2.00511457 6.70753343 2.5 10.0625 C2.64308594 11.00544922 2.78617188 11.94839844 2.93359375 12.91992188 C3.67809139 18.00732242 4.17113566 22.8587994 4 28 C2 27 2 27 1.3671875 25.3125 C-0.42324768 16.90029659 -0.17859032 8.55249181 0 0 Z " fill="#9DBADC" transform="translate(511,367)"/>
<path d="M0 0 C0.66 0 1.32 0 2 0 C0.43706905 4.26769228 -1.66991743 8.13895804 -3.9375 12.0625 C-4.28490234 12.67416016 -4.63230469 13.28582031 -4.99023438 13.91601562 C-8.6899112 20.36083873 -8.6899112 20.36083873 -11 23 C-11.66 23 -12.32 23 -13 23 C-11.04977866 17.84899485 -8.36280172 13.37376586 -5.5 8.6875 C-5.00113281 7.85154297 -4.50226562 7.01558594 -3.98828125 6.15429688 C-3.50746094 5.36474609 -3.02664063 4.57519531 -2.53125 3.76171875 C-2.09361328 3.03944092 -1.65597656 2.31716309 -1.20507812 1.57299805 C-0.80740234 1.05390869 -0.40972656 0.53481934 0 0 Z " fill="#B6CEE5" transform="translate(571,498)"/>
<path d="M0 0 C0.33 0 0.66 0 1 0 C0.55212563 11.8686708 -1.74607284 23.36697914 -4 35 C-4.33 35 -4.66 35 -5 35 C-5.02686553 33.02090602 -5.04633375 31.04171029 -5.0625 29.0625 C-5.07410156 27.96035156 -5.08570313 26.85820312 -5.09765625 25.72265625 C-5 23 -5 23 -4 22 C-3.76712992 20.31816052 -3.58735834 18.6287584 -3.4375 16.9375 C-3.35371094 16.01839844 -3.26992188 15.09929687 -3.18359375 14.15234375 C-3.12300781 13.44207031 -3.06242187 12.73179687 -3 12 C-2.34 12 -1.68 12 -1 12 C-1.020625 10.948125 -1.04125 9.89625 -1.0625 8.8125 C-1.01103198 5.67295096 -0.73482813 3.03116604 0 0 Z " fill="#AFC8E3" transform="translate(274,298)"/>
<path d="M0 0 C0 4.02521086 -1.91491651 6.37970526 -4.0625 9.625 C-4.46718506 10.24584473 -4.87187012 10.86668945 -5.28881836 11.50634766 C-8.60733446 16.53922391 -12.16890838 21.34356067 -16 26 C-16 21.75098046 -13.70243573 19.19436098 -11.375 15.8125 C-10.9207666 15.14210693 -10.4665332 14.47171387 -9.99853516 13.78100586 C-6.79703392 9.08346005 -3.48426374 4.4928664 0 0 Z " fill="#BAD1E7" transform="translate(544,542)"/>
<path d="M0 0 C0.33 0.66 0.66 1.32 1 2 C-0.4499494 5.49764837 -2.40883399 8.75708162 -4.25 12.0625 C-4.75402344 12.99900391 -5.25804687 13.93550781 -5.77734375 14.90039062 C-6.51404297 16.23553711 -6.51404297 16.23553711 -7.265625 17.59765625 C-7.71711914 18.41758057 -8.16861328 19.23750488 -8.63378906 20.08227539 C-10 22 -10 22 -13 23 C-11.60194507 19.29649871 -9.92374219 15.89542658 -8 12.4375 C-6.26972766 9.31868411 -4.56799633 6.20383866 -3 3 C-2.34 3 -1.68 3 -1 3 C-0.67 2.01 -0.34 1.02 0 0 Z " fill="#B1C8E2" transform="translate(154,367)"/>
<path d="M0 0 C4.48067803 4.04472017 7.32529363 8.46984621 10.3125 13.6875 C10.76689453 14.45900391 11.22128906 15.23050781 11.68945312 16.02539062 C15 21.72550517 15 21.72550517 15 24 C14.34 24 13.68 24 13 24 C12.34 23.34 11.68 22.68 11 22 C10.67 22 10.34 22 10 22 C9.649375 20.741875 9.29875 19.48375 8.9375 18.1875 C7.23980028 12.9955057 4.48042752 8.78174735 1.42578125 4.28515625 C0 2 0 2 0 0 Z " fill="#B8CEE5" transform="translate(432,167)"/>
<path d="M0 0 C2.625 0.375 2.625 0.375 5 1 C4.67 3.31 4.34 5.62 4 8 C2.35 8.66 0.7 9.32 -1 10 C-2 9 -2 9 -2.1875 5.5625 C-2 2 -2 2 0 0 Z " fill="#135DAE" transform="translate(282,118)"/>
<path d="M0 0 C0 0.33 0 0.66 0 1 C-0.96421875 1.06058594 -1.9284375 1.12117188 -2.921875 1.18359375 C-4.18515625 1.26738281 -5.4484375 1.35117187 -6.75 1.4375 C-8.00296875 1.51871094 -9.2559375 1.59992188 -10.546875 1.68359375 C-13.78934358 1.88569707 -13.78934358 1.88569707 -16.03125 2.53125 C-18.9444774 3.22487557 -21.76297093 3.09237029 -24.75 3.0625 C-25.92046875 3.05347656 -27.0909375 3.04445313 -28.296875 3.03515625 C-29.18890625 3.02355469 -30.0809375 3.01195312 -31 3 C-26.52367426 0.50254747 -22.21804213 0.28308734 -17.1875 -0.1875 C-16.31029297 -0.28224609 -15.43308594 -0.37699219 -14.52929688 -0.47460938 C-9.45541716 -0.97175092 -5.0097657 -0.96367935 0 0 Z " fill="#0F52A9" transform="translate(395,458)"/>
<path d="M0 0 C6.18400967 0.48154174 12.05934422 1.1637973 18 3 C18.33 3.66 18.66 4.32 19 5 C21.3140622 5.73075648 23.64828869 6.40138258 26 7 C21.83018039 8.78243584 18.16931217 7.05662953 14.125 5.6875 C13.43019531 5.46126953 12.73539063 5.23503906 12.01953125 5.00195312 C10.00934833 4.34514194 8.00424884 3.67467253 6 3 C4.84242188 2.61457031 3.68484375 2.22914063 2.4921875 1.83203125 C1.25855469 1.42017578 1.25855469 1.42017578 0 1 C0 0.67 0 0.34 0 0 Z " fill="#97B4D9" transform="translate(222,615)"/>
<path d="M0 0 C1.50433594 0.01353516 1.50433594 0.01353516 3.0390625 0.02734375 C3.80992187 0.03894531 4.58078125 0.05054688 5.375 0.0625 C2.89730944 3.04242514 0.58025299 3.83638497 -3.125 4.8125 C-4.0840625 5.07546875 -5.043125 5.3384375 -6.03125 5.609375 C-8.625 6.0625 -8.625 6.0625 -11.625 5.0625 C-11.295 4.4025 -10.965 3.7425 -10.625 3.0625 C-9.635 3.0625 -8.645 3.0625 -7.625 3.0625 C-7.625 2.4025 -7.625 1.7425 -7.625 1.0625 C-4.98041621 -0.25979189 -2.94738699 -0.03427194 0 0 Z " fill="#2461B2" transform="translate(331.625,605.9375)"/>
<path d="M0 0 C-3.43847456 2.29231637 -6.90936321 3.40770258 -10.8125 4.625 C-11.51181641 4.85445312 -12.21113281 5.08390625 -12.93164062 5.3203125 C-17.08051639 6.62435577 -20.59819704 7.26258793 -25 7 C-22.05591641 5.48025315 -19.0749124 4.17027738 -16 2.9375 C-15.154375 2.59589844 -14.30875 2.25429688 -13.4375 1.90234375 C-8.79378216 0.18327512 -4.9801488 -0.09577209 0 0 Z " fill="#95B1D8" transform="translate(459,616)"/>
<path d="M0 0 C0.5859375 1.84375 0.5859375 1.84375 1 4 C-0.375 6.5 -0.375 6.5 -2 9 C-2.69579454 11.19130534 -2.69579454 11.19130534 -3 13 C-3.61875 13.061875 -4.2375 13.12375 -4.875 13.1875 C-7.22545065 13.80524198 -7.22545065 13.80524198 -8.0625 16.25 C-8.371875 17.1575 -8.68125 18.065 -9 19 C-9.97236487 20.6829392 -10.96564444 22.35443434 -12 24 C-12.33 23.34 -12.66 22.68 -13 22 C-11.92016602 19.75341797 -11.92016602 19.75341797 -10.25390625 16.9921875 C-9.36928711 15.51298828 -9.36928711 15.51298828 -8.46679688 14.00390625 C-7.83837891 12.97136719 -7.20996094 11.93882812 -6.5625 10.875 C-5.93794922 9.83472656 -5.31339844 8.79445313 -4.66992188 7.72265625 C-3.12038671 5.14404047 -1.56350055 2.57016384 0 0 Z " fill="#A7C0DE" transform="translate(140,390)"/>
<path d="M0 0 C8.03505652 1.21523428 15.6363751 3.53476475 23 7 C23.33 7.66 23.66 8.32 24 9 C16.08869501 7.49958009 8.40630583 5.17413107 1 2 C0.67 1.34 0.34 0.68 0 0 Z " fill="#D2E1F0" transform="translate(207,585)"/>
<path d="M0 0 C2.79807643 0.65693968 5.45165314 0.74518157 8.32421875 0.84375 C9.484375 0.88564453 10.64453125 0.92753906 11.83984375 0.97070312 C13.04640625 1.01001953 14.25296875 1.04933594 15.49609375 1.08984375 C16.718125 1.13302734 17.94015625 1.17621094 19.19921875 1.22070312 C22.21473295 1.3267173 25.23032823 1.42878311 28.24609375 1.52734375 C28.24609375 1.85734375 28.24609375 2.18734375 28.24609375 2.52734375 C23.95939517 2.55221969 19.6727358 2.5702865 15.38598633 2.58227539 C13.93024971 2.58727792 12.47451804 2.59408205 11.01879883 2.6027832 C8.91616587 2.61502875 6.81359984 2.62061298 4.7109375 2.625 C3.44886475 2.63023682 2.18679199 2.63547363 0.88647461 2.64086914 C-2.73062607 2.52806974 -6.18470176 2.10847057 -9.75390625 1.52734375 C-9.75390625 1.19734375 -9.75390625 0.86734375 -9.75390625 0.52734375 C-2.23067822 -0.60114045 -2.23067822 -0.60114045 0 0 Z " fill="#9DC0DD" transform="translate(405.75390625,621.47265625)"/>
<path d="M0 0 C0 0.33 0 0.66 0 1 C-1.98 1 -3.96 1 -6 1 C-6 1.66 -6 2.32 -6 3 C-11.61 4.32 -17.22 5.64 -23 7 C-20.43303375 3.14955062 -18.71030374 3.03229466 -14.3125 1.8125 C-13.11238281 1.46832031 -11.91226562 1.12414062 -10.67578125 0.76953125 C-7.00355094 0.0007434 -3.73943137 -0.13920861 0 0 Z " fill="#D8E5F1" transform="translate(482,564)"/>
<path d="M0 0 C-0.99 1.485 -0.99 1.485 -2 3 C-4.70556641 3.2487793 -4.70556641 3.2487793 -8.1015625 3.07421875 C-9.31328125 3.01943359 -10.525 2.96464844 -11.7734375 2.90820312 C-13.67996094 2.79895508 -13.67996094 2.79895508 -15.625 2.6875 C-17.543125 2.5956543 -17.543125 2.5956543 -19.5 2.50195312 C-22.66760847 2.34830048 -25.83381987 2.18039202 -29 2 C-29 1.67 -29 1.34 -29 1 C-19.31629705 0.30386731 -9.71614177 -0.14973506 0 0 Z " fill="#ABC8E2" transform="translate(237,507)"/>
<path d="M0 0 C4.95 0 9.9 0 15 0 C11.19757624 2.53494918 8.39909702 3.13181134 3.890625 3.09765625 C3.13652344 3.09443359 2.38242188 3.09121094 1.60546875 3.08789062 C0.82816406 3.07951172 0.05085938 3.07113281 -0.75 3.0625 C-1.54277344 3.05798828 -2.33554688 3.05347656 -3.15234375 3.04882812 C-5.10159508 3.03708565 -7.05080738 3.01915146 -9 3 C-9 2.67 -9 2.34 -9 2 C-4.545 1.505 -4.545 1.505 0 1 C0 0.67 0 0.34 0 0 Z " fill="#5885C3" transform="translate(113,582)"/>
<path d="M0 0 C12.87 0.495 12.87 0.495 26 1 C26 1.33 26 1.66 26 2 C18.74 2.66 11.48 3.32 4 4 C4 3.34 4 2.68 4 2 C2.68 1.34 1.36 0.68 0 0 Z " fill="#97B9DB" transform="translate(65,570)"/>
<path d="M0 0 C-0.99 0.33 -1.98 0.66 -3 1 C-3 1.66 -3 2.32 -3 3 C-4.0725 2.979375 -5.145 2.95875 -6.25 2.9375 C-9.72334347 2.83501233 -9.72334347 2.83501233 -11.875 3.53125 C-14.62056086 4.13688843 -16.96069595 3.86135401 -19.75 3.5625 C-21.22726562 3.40974609 -21.22726562 3.40974609 -22.734375 3.25390625 C-23.48203125 3.17011719 -24.2296875 3.08632813 -25 3 C-25 2.67 -25 2.34 -25 2 C-22.33397504 1.66068773 -19.66736986 1.32842824 -17 1 C-15.88431641 0.85691406 -15.88431641 0.85691406 -14.74609375 0.7109375 C-9.79111949 0.10772324 -4.99157504 -0.09075591 0 0 Z " fill="#9FC0DF" transform="translate(558,474)"/>
<path d="M0 0 C4.62233847 1.53357959 6.6356531 5.28707795 9.25 9.125 C9.70890625 9.78371094 10.1678125 10.44242188 10.640625 11.12109375 C11.76821231 12.7420005 12.88516391 14.37029686 14 16 C13.67 16.66 13.34 17.32 13 18 C9.88642404 15.04035363 7.3330925 11.91336395 4.8125 8.4375 C4.11769531 7.48746094 3.42289062 6.53742188 2.70703125 5.55859375 C1 3 1 3 0 0 Z " fill="#BBD3E9" transform="translate(402,125)"/>
<path d="M0 0 C2.02045442 0.60183749 4.02111039 1.27306096 6 2 C6.33 2.66 6.66 3.32 7 4 C5.35 3.67 3.7 3.34 2 3 C1.67 10.92 1.34 18.84 1 27 C0.67 27 0.34 27 0 27 C-0.19582583 22.68783519 -0.38027074 18.3752591 -0.5625 14.0625 C-0.61857422 12.83080078 -0.67464844 11.59910156 -0.73242188 10.33007812 C-0.78076172 9.16025391 -0.82910156 7.99042969 -0.87890625 6.78515625 C-0.9260376 5.70113525 -0.97316895 4.61711426 -1.02172852 3.50024414 C-1 1 -1 1 0 0 Z " fill="#3B75B9" transform="translate(299,26)"/>
<path d="M0 0 C8.96884405 -0.86238885 16.15973773 3.0051997 24 7 C18.20140805 6.43189471 13.02313406 5.26320265 7.5 3.4375 C6.77296875 3.20353516 6.0459375 2.96957031 5.296875 2.72851562 C3.52919739 2.15867219 1.76429031 1.58024596 0 1 C0 0.67 0 0.34 0 0 Z " fill="#BDD1E7" transform="translate(504,609)"/>
<path d="M0 0 C2.60804095 0.75930306 5.21086881 1.53178694 7.8125 2.3125 C8.55048828 2.52583984 9.28847656 2.73917969 10.04882812 2.95898438 C10.76103516 3.17490234 11.47324219 3.39082031 12.20703125 3.61328125 C13.18893433 3.90392456 13.18893433 3.90392456 14.19067383 4.20043945 C16.28653348 5.1266222 17.48363518 6.30306671 19 8 C12.0886636 7.52877252 6.27795839 4.79363994 0 2 C0 1.34 0 0.68 0 0 Z " fill="#C2D4E7" transform="translate(228,570)"/>
<path d="M0 0 C0 0.66 0 1.32 0 2 C-2.4363189 2.67126129 -4.87388883 3.33716354 -7.3125 4 C-8.00279297 4.19078125 -8.69308594 4.3815625 -9.40429688 4.578125 C-12.35787949 5.37716184 -14.92559219 6 -18 6 C-18 5.34 -18 4.68 -18 4 C-15.75194998 3.32678716 -13.50147776 2.66165877 -11.25 2 C-9.99703125 1.62875 -8.7440625 1.2575 -7.453125 0.875 C-4 0 -4 0 0 0 Z " fill="#D1E2F0" transform="translate(295,475)"/>
<path d="M0 0 C0.66 0 1.32 0 2 0 C4.20949832 4.41029783 4.2370648 8.48940324 4.125 13.3125 C4.11597656 14.05306641 4.10695313 14.79363281 4.09765625 15.55664062 C4.07424213 17.37123467 4.03837615 19.18566071 4 21 C3.67 21 3.34 21 3 21 C2.01 14.07 1.02 7.14 0 0 Z " fill="#1E5BAF" transform="translate(507,361)"/>
<path d="M0 0 C7.34467941 1.61831919 14.67349113 3.30142762 22 5 C22 5.33 22 5.66 22 6 C18.04 6 14.08 6 10 6 C10 5.34 10 4.68 10 4 C7.03 3.67 4.06 3.34 1 3 C0.67 2.01 0.34 1.02 0 0 Z " fill="#A6C2E0" transform="translate(231,594)"/>
<path d="M0 0 C-3.73959528 3.73959528 -8.85200021 3.05603539 -13.875 3.0625 C-15.58338595 3.04655506 -17.29175867 3.02735618 -19 3 C-19 2.34 -19 1.68 -19 1 C-12.62694402 0.25492456 -6.41688675 -0.10349817 0 0 Z " fill="#D3E1EF" transform="translate(317,499)"/>
<path d="M0 0 C0.33 0 0.66 0 1 0 C0.42978625 6.95660771 -1.01302694 13.31427305 -3 20 C-3.33 20 -3.66 20 -4 20 C-4.21824777 13.9981863 -3.5056904 8.80766296 -2 3 C-1.34 3 -0.68 3 0 3 C0 2.01 0 1.02 0 0 Z " fill="#CADAEB" transform="translate(258,383)"/>
<path d="M0 0 C-2.88628401 1.57554035 -5.53342384 2.46276373 -8.75 3.125 C-9.54921875 3.29257812 -10.3484375 3.46015625 -11.171875 3.6328125 C-11.77515625 3.75398437 -12.3784375 3.87515625 -13 4 C-13 4.66 -13 5.32 -13 6 C-18.75 7.125 -18.75 7.125 -21 6 C-7.14949749 -0.34045226 -7.14949749 -0.34045226 0 0 Z " fill="#084BA6" transform="translate(176,588)"/>
<path d="M0 0 C2.05078125 0.03255208 4.1015625 0.06510417 6.15234375 0.09765625 C3.62814782 2.62185218 1.72876512 2.88722663 -1.72265625 3.72265625 C-2.77195313 3.98304688 -3.82125 4.2434375 -4.90234375 4.51171875 C-7.84765625 5.09765625 -7.84765625 5.09765625 -11.84765625 5.09765625 C-11.84765625 4.43765625 -11.84765625 3.77765625 -11.84765625 3.09765625 C-10.89052734 2.89849609 -10.89052734 2.89849609 -9.9140625 2.6953125 C-9.08777344 2.51871094 -8.26148438 2.34210937 -7.41015625 2.16015625 C-6.58644531 1.98613281 -5.76273438 1.81210937 -4.9140625 1.6328125 C-2.70973564 1.06193768 -2.22467894 0.11758345 0 0 Z " fill="#A1BDDB" transform="translate(179.84765625,606.90234375)"/>
<path d="M0 0 C5.85845561 0.44793021 11.48313583 0.8871584 17 3 C17.33 3.99 17.66 4.98 18 6 C11.82777121 4.75971762 5.93317878 3.10396411 0 1 C0 0.67 0 0.34 0 0 Z " fill="#87A9D3" transform="translate(371,614)"/>
<path d="M0 0 C-0.33 0.99 -0.66 1.98 -1 3 C-4.0625 4.1875 -4.0625 4.1875 -7 5 C-7.66 4.34 -8.32 3.68 -9 3 C-11.57061311 2.35232207 -11.57061311 2.35232207 -14 2 C-14 1.67 -14 1.34 -14 1 C-12.22932584 0.83165067 -10.45845388 0.66538091 -8.6875 0.5 C-7.70136719 0.4071875 -6.71523438 0.314375 -5.69921875 0.21875 C-3 0 -3 0 0 0 Z " fill="#0354AA" transform="translate(577,601)"/>
<path d="M0 0 C0.68359375 1.640625 0.68359375 1.640625 1 4 C-0.21484375 6.796875 -0.21484375 6.796875 -1.9375 9.75 C-2.50339844 10.73484375 -3.06929687 11.7196875 -3.65234375 12.734375 C-4.09707031 13.48203125 -4.54179687 14.2296875 -5 15 C-5.66 15 -6.32 15 -7 15 C-6.42176904 10.93774452 -5.10882263 8.15237654 -2.9375 4.6875 C-2.38964844 3.80449219 -1.84179688 2.92148438 -1.27734375 2.01171875 C-0.64505859 1.01591797 -0.64505859 1.01591797 0 0 Z " fill="#D3E2EF" transform="translate(249,191)"/>
<path d="M0 0 C4.20240011 3.71750779 6.99782679 8.31660979 10 13 C9.67 13.66 9.34 14.32 9 15 C8.01 14.67 7.02 14.34 6 14 C5.33333333 12 4.66666667 10 4 8 C3.01 7.67 2.02 7.34 1 7 C0.67 4.69 0.34 2.38 0 0 Z " fill="#89ACD5" transform="translate(422,152)"/>
<path d="M0 0 C-0.33 0.66 -0.66 1.32 -1 2 C-4.61867559 3.2062252 -7.92506251 3.10816918 -11.6875 3.0625 C-12.38939453 3.05798828 -13.09128906 3.05347656 -13.81445312 3.04882812 C-15.54300538 3.03706927 -17.27151365 3.01913454 -19 3 C-19 2.67 -19 2.34 -19 2 C-16.77149723 1.66225668 -14.54216533 1.3299813 -12.3125 1 C-10.45044922 0.7215625 -10.45044922 0.7215625 -8.55078125 0.4375 C-5.64113629 0.07899589 -2.92299978 -0.08942256 0 0 Z " fill="#A9C2DE" transform="translate(128,603)"/>
<path d="M0 0 C0 0.66 0 1.32 0 2 C-2.09950586 2.86555948 -4.2047907 3.71711277 -6.3125 4.5625 C-8.07013672 5.27599609 -8.07013672 5.27599609 -9.86328125 6.00390625 C-13 7 -13 7 -16 6 C-15.34 6 -14.68 6 -14 6 C-14 5.34 -14 4.68 -14 4 C-12.0429132 3.32968281 -10.08428887 2.66385317 -8.125 2 C-7.03445313 1.62875 -5.94390625 1.2575 -4.8203125 0.875 C-2 0 -2 0 0 0 Z " fill="#D5E5EF" transform="translate(316,588)"/>
<path d="M0 0 C0.33 0 0.66 0 1 0 C0.65034965 8.18181818 0.65034965 8.18181818 -1.9375 11.4375 C-2.618125 11.953125 -3.29875 12.46875 -4 13 C-4.66 13.66 -5.32 14.32 -6 15 C-5.39644592 11.14974121 -4.23227397 8.13898841 -2.4375 4.6875 C-1.98246094 3.80449219 -1.52742187 2.92148438 -1.05859375 2.01171875 C-0.53458984 1.01591797 -0.53458984 1.01591797 0 0 Z " fill="#A4BFDE" transform="translate(234,221)"/>
<path d="M0 0 C0.33 0 0.66 0 1 0 C1.44041451 5.37305699 1.44041451 5.37305699 1 8 C-1.5 10 -1.5 10 -4 11 C-3.39301257 6.87248551 -1.96189209 3.6678852 0 0 Z " fill="#6693C8" transform="translate(261,444)"/>
<path d="M0 0 C1.85486952 2.78230428 2.72462112 4.84363607 3.6875 8 C3.95949219 8.86625 4.23148437 9.7325 4.51171875 10.625 C5 13 5 13 4 16 C4 15.34 4 14.68 4 14 C3.34 14 2.68 14 2 14 C2 12.02 2 10.04 2 8 C1.34 8 0.68 8 0 8 C0 5.36 0 2.72 0 0 Z " fill="#90B2D8" transform="translate(489,282)"/>
<path d="M0 0 C0 0.99 0 1.98 0 3 C-1.32 3.33 -2.64 3.66 -4 4 C-4 3.34 -4 2.68 -4 2 C-5.98 2 -7.96 2 -10 2 C-9 0 -9 0 -7.25 -0.6875 C-4.60760177 -1.05449975 -2.57327078 -0.64331769 0 0 Z " fill="#7397C8" transform="translate(581,599)"/>
<path d="M0 0 C-2.59980864 3.32957948 -5.11064555 3.61761712 -9.1875 4.1875 C-10.27417969 4.34605469 -11.36085937 4.50460937 -12.48046875 4.66796875 C-13.31191406 4.77753906 -14.14335937 4.88710938 -15 5 C-12.76504572 2.76504572 -10.97585464 1.9975209 -8.0625 0.8125 C-7.18722656 0.44769531 -6.31195313 0.08289063 -5.41015625 -0.29296875 C-3 -1 -3 -1 0 0 Z " fill="#9EBBDB" transform="translate(153,595)"/>
<path d="M0 0 C-1.32 0.33 -2.64 0.66 -4 1 C-4 1.66 -4 2.32 -4 3 C-7.63 3.66 -11.26 4.32 -15 5 C-15 4.34 -15 3.68 -15 3 C-13.44033782 2.491217 -11.87710759 1.99336531 -10.3125 1.5 C-9.44238281 1.2215625 -8.57226562 0.943125 -7.67578125 0.65625 C-5.00608323 0.00149195 -2.73603316 -0.11831495 0 0 Z " fill="#DBE7F2" transform="translate(329,564)"/>
<path d="M0 0 C1.90234375 0.26171875 1.90234375 0.26171875 4 1 C4.94140625 2.70703125 4.94140625 2.70703125 5.5625 4.8125 C6.61565318 8.03561166 7.73582773 10.41237455 10 13 C9.67 13.66 9.34 14.32 9 15 C7.86863414 13.44210317 6.74517679 11.87846143 5.625 10.3125 C4.99851562 9.44238281 4.37203125 8.57226562 3.7265625 7.67578125 C2.10584157 5.16403048 1.00141912 2.80700813 0 0 Z " fill="#AAC4E1" transform="translate(96,529)"/>
<path d="M0 0 C4.56048012 3.61251516 8.01665146 6.98797445 11 12 C10.01 12 9.02 12 8 12 C5.95703125 9.8828125 5.95703125 9.8828125 3.8125 7.125 C3.09707031 6.22007813 2.38164062 5.31515625 1.64453125 4.3828125 C0 2 0 2 0 0 Z " fill="#1454AA" transform="translate(375,94)"/>
<path d="M0 0 C-1.32 0.33 -2.64 0.66 -4 1 C-4 1.66 -4 2.32 -4 3 C-9.28 2.67 -14.56 2.34 -20 2 C-20 1.67 -20 1.34 -20 1 C-13.31184516 0.37577221 -6.71884955 -0.12920865 0 0 Z " fill="#B6D1E8" transform="translate(115,569)"/>
<path d="M0 0 C0.33 0.66 0.66 1.32 1 2 C-0.21484375 4.3828125 -0.21484375 4.3828125 -1.9375 7.125 C-2.50339844 8.03507812 -3.06929687 8.94515625 -3.65234375 9.8828125 C-4.09707031 10.58148438 -4.54179688 11.28015625 -5 12 C-6 10 -6 10 -5.546875 8.125 C-5.28390625 7.42375 -5.0209375 6.7225 -4.75 6 C-4.49734375 5.29875 -4.2446875 4.5975 -3.984375 3.875 C-3 2 -3 2 0 0 Z " fill="#97B5D8" transform="translate(585,476)"/>
<path d="M0 0 C0.66 0 1.32 0 2 0 C0.68938409 4.23429756 -0.94356259 8.07407404 -3 12 C-3.66 12 -4.32 12 -5 12 C-5 10.68 -5 9.36 -5 8 C-4.34 8 -3.68 8 -3 8 C-2.690625 7.05125 -2.38125 6.1025 -2.0625 5.125 C-1 2 -1 2 0 0 Z " fill="#D3E5F1" transform="translate(246,475)"/>
<path d="M0 0 C0 3.58784961 -0.88385822 4.70021279 -2.875 7.625 C-3.40867187 8.42164063 -3.94234375 9.21828125 -4.4921875 10.0390625 C-6 12 -6 12 -8 13 C-4 2 -4 2 0 0 Z " fill="#C7D9EE" transform="translate(124,418)"/>
<path d="M0 0 C0.33 0 0.66 0 1 0 C1.35858439 3.85478218 1.2754818 5.57759458 -0.875 8.875 C-1.57625 9.57625 -2.2775 10.2775 -3 11 C-3.66 11 -4.32 11 -5 11 C-3.77782954 6.95743617 -2.37245704 3.50711041 0 0 Z " fill="#79A0CE" transform="translate(225,240)"/>
<path d="M0 0 C-1 2 -1 2 -2.92578125 2.66796875 C-3.71339844 2.83941406 -4.50101562 3.01085937 -5.3125 3.1875 C-6.09238281 3.36667969 -6.87226563 3.54585937 -7.67578125 3.73046875 C-10.09204759 4.01067443 -11.70242952 3.74132137 -14 3 C-9.03006806 0.56574762 -5.65394631 -0.34615998 0 0 Z " fill="#A8C3E0" transform="translate(488,607)"/>
<path d="M0 0 C10.5 1.5 10.5 1.5 14 5 C8.58609132 4.53328373 4.79482068 3.75702189 0 1 C0 0.67 0 0.34 0 0 Z " fill="#A5C1DE" transform="translate(74,579)"/>
<path d="M0 0 C1.22589844 0.01353516 1.22589844 0.01353516 2.4765625 0.02734375 C3.41628906 0.04474609 3.41628906 0.04474609 4.375 0.0625 C4.375 0.7225 4.375 1.3825 4.375 2.0625 C1.075 2.3925 -2.225 2.7225 -5.625 3.0625 C-5.955 2.4025 -6.285 1.7425 -6.625 1.0625 C-4.21954362 -0.14022819 -2.67503047 -0.03821472 0 0 Z " fill="#6892C9" transform="translate(323.625,466.9375)"/>
<path d="M0 0 C0.66 0.33 1.32 0.66 2 1 C0.68 4.63 -0.64 8.26 -2 12 C-2.66 12 -3.32 12 -4 12 C-3.45660208 7.43545749 -2.20536179 4.0271824 0 0 Z " fill="#A4C3E0" transform="translate(270,418)"/>
<path d="M0 0 C0.33 0.66 0.66 1.32 1 2 C0.109375 4.12890625 0.109375 4.12890625 -1.25 6.5625 C-1.68828125 7.36816406 -2.1265625 8.17382812 -2.578125 9.00390625 C-4 11 -4 11 -7 12 C-5.80100302 8.9168649 -4.52299523 5.93720508 -3 3 C-2.34 3 -1.68 3 -1 3 C-0.67 2.01 -0.34 1.02 0 0 Z " fill="#CCDDEC" transform="translate(154,367)"/>
<path d="M0 0 C5.15795631 -0.17786056 9.18029285 -0.11596899 14 2 C14.33 2.66 14.66 3.32 15 4 C10 3 5 2 0 1 C0 0.67 0 0.34 0 0 Z " fill="#B2CAE3" transform="translate(350,608)"/>
<path d="M0 0 C-3.0469629 1.69433918 -5.82821466 2.49467112 -9.25 3.125 C-10.58804687 3.37636719 -10.58804687 3.37636719 -11.953125 3.6328125 C-12.62859375 3.75398437 -13.3040625 3.87515625 -14 4 C-13.67 3.01 -13.34 2.02 -13 1 C-8.60563789 0.14256349 -4.47427924 -0.08948558 0 0 Z " fill="#B0C9E3" transform="translate(334,608)"/>
<path d="M0 0 C0.99 0 1.98 0 3 0 C1.54955729 4.10958767 -0.51110752 7.43258745 -3 11 C-3.625 9.1875 -3.625 9.1875 -4 7 C-3.34 6.01 -2.68 5.02 -2 4 C-1.34 4 -0.68 4 0 4 C0 2.68 0 1.36 0 0 Z " fill="#81A3D1" transform="translate(555,521)"/>
<path d="M0 0 C0.66 0 1.32 0 2 0 C3.65 3.63 5.3 7.26 7 11 C3.66428571 9.88809524 3.41582921 9.53679327 1.8125 6.625 C1.46832031 6.01914062 1.12414062 5.41328125 0.76953125 4.7890625 C0 3 0 3 0 0 Z " fill="#CBDCEB" transform="translate(86,513)"/>
<path d="M0 0 C1.32 0 2.64 0 4 0 C4 0.99 4 1.98 4 3 C0.62902617 4.49821059 -1.20442119 5 -5 5 C-5 4.34 -5 3.68 -5 3 C-3.35 2.67 -1.7 2.34 0 2 C0 1.34 0 0.68 0 0 Z " fill="#94B3D8" transform="translate(259,483)"/>
<path d="M0 0 C0.33 1.32 0.66 2.64 1 4 C-0.32 4.99 -1.64 5.98 -3 7 C-2.67 5.68 -2.34 4.36 -2 3 C-4.97 2.505 -4.97 2.505 -8 2 C-8 1.67 -8 1.34 -8 1 C-5.36 0.67 -2.72 0.34 0 0 Z " fill="#1754A8" transform="translate(586,471)"/>
<path d="M0 0 C3.29967665 2.80472516 5.08459104 6.16918209 7 10 C6.67 10.99 6.34 11.98 6 13 C5.67 11.68 5.34 10.36 5 9 C4.34 9 3.68 9 3 9 C0.56839395 5.63316085 0 4.26649636 0 0 Z " fill="#C2D5E9" transform="translate(447,191)"/>
<path d="M0 0 C-0.33 0.99 -0.66 1.98 -1 3 C-2.84765625 3.73046875 -2.84765625 3.73046875 -5.0625 4.1875 C-5.79597656 4.34605469 -6.52945312 4.50460937 -7.28515625 4.66796875 C-8.13400391 4.83232422 -8.13400391 4.83232422 -9 5 C-9.33 4.34 -9.66 3.68 -10 3 C-3.375 0 -3.375 0 0 0 Z " fill="#205EB0" transform="translate(321,609)"/>
<path d="M0 0 C-0.99 0.33 -1.98 0.66 -3 1 C-3 1.66 -3 2.32 -3 3 C-4.98 3.33 -6.96 3.66 -9 4 C-8.6875 2.0625 -8.6875 2.0625 -8 0 C-4.71023192 -1.09658936 -3.28696233 -0.79953138 0 0 Z " fill="#5C8BC5" transform="translate(477,609)"/>
<path d="M0 0 C-0.33 0.66 -0.66 1.32 -1 2 C-5.1734802 3.35024359 -8.73933592 2.7518819 -13 2 C-13 1.67 -13 1.34 -13 1 C-11.58622218 0.63447197 -10.16879424 0.28304505 -8.75 -0.0625 C-7.96109375 -0.25972656 -7.1721875 -0.45695313 -6.359375 -0.66015625 C-3.89605178 -1.01497267 -2.34395868 -0.76877544 0 0 Z " fill="#93B1D8" transform="translate(294,598)"/>
<path d="M0 0 C0 0.66 0 1.32 0 2 C-3.87684087 3.19287411 -6.91621923 4 -11 4 C-11 3.34 -11 2.68 -11 2 C-7.12315913 0.80712589 -4.08378077 0 0 0 Z " fill="#DAECF4" transform="translate(172,565)"/>
<path d="M0 0 C0.33 0 0.66 0 1 0 C0.0625 9.21875 0.0625 9.21875 -2 13 C-2.99 13.33 -3.98 13.66 -5 14 C-3.46527032 9.27775484 -1.76054874 4.64144669 0 0 Z " fill="#1C5AAC" transform="translate(267,430)"/>
<path d="M0 0 C0.66 0.33 1.32 0.66 2 1 C2 3.31 2 5.62 2 8 C1.01 8.33 0.02 8.66 -1 9 C-1.09765625 2.84765625 -1.09765625 2.84765625 -1 1 C-0.67 0.67 -0.34 0.34 0 0 Z " fill="#5886C3" transform="translate(274,290)"/>
<path d="M0 0 C2.33294775 -0.04241723 4.66702567 -0.04092937 7 0 C7.33 0.33 7.66 0.66 8 1 C9.34747084 1.23075082 10.70377565 1.41153063 12.0625 1.5625 C13.361875 1.706875 14.66125 1.85125 16 2 C16 2.33 16 2.66 16 3 C10.26157749 3.20413361 5.39460953 3.27141454 0 1 C0 0.67 0 0.34 0 0 Z " fill="#2861B0" transform="translate(405,577)"/>
<path d="M0 0 C3.625 -0.1875 3.625 -0.1875 7 0 C7 0.66 7 1.32 7 2 C4.04335481 3.4783226 1.25770263 3.06032783 -2 3 C-1.34 2.01 -0.68 1.02 0 0 Z " fill="#2167B3" transform="translate(206,462)"/>
<path d="M0 0 C1.18771723 3.42943519 0.80226223 5.37784675 -0.4375 8.75 C-0.86869141 9.94882812 -0.86869141 9.94882812 -1.30859375 11.171875 C-1.65083984 12.07679688 -1.65083984 12.07679688 -2 13 C-3.4500578 8.45580479 -2.32826388 5.50133869 -1 1 C-0.67 0.67 -0.34 0.34 0 0 Z " fill="#A7C1E0" transform="translate(240,445)"/>
<path d="M0 0 C1.33332095 2.6666419 0.67102033 4.16680303 0 7 C-1.32 7.33 -2.64 7.66 -4 8 C-3.50168276 4.31245243 -2.89932357 2.39509338 0 0 Z " fill="#7DA3CF" transform="translate(265,158)"/>
<path d="M0 0 C3.08089673 2.77280706 4.68775452 5.06326356 6 9 C5.01 9.33 4.02 9.66 3 10 C0.70366176 6.55549263 0.45983515 4.06187717 0 0 Z " fill="#7FA5D0" transform="translate(416,143)"/>
<path d="M0 0 C0.75 1.5625 0.75 1.5625 1 4 C-0.13084437 6.50286409 -1.52139516 8.67007722 -3 11 C-3.66 11 -4.32 11 -5 11 C-3.77472971 6.94718288 -2.30119506 3.55639236 0 0 Z " fill="#CEE0ED" transform="translate(279,123)"/>
<path d="M0 0 C3.3 1.65 6.6 3.3 10 5 C10 5.66 10 6.32 10 7 C6.12697862 5.85569823 2.99736561 4.76679902 0 2 C0 1.34 0 0.68 0 0 Z " fill="#B4CBE3" transform="translate(64,572)"/>
<path d="M0 0 C0.75 1.625 0.75 1.625 1 4 C-0.8125 7.25 -0.8125 7.25 -3 10 C-3.66 10 -4.32 10 -5 10 C-3.66511872 6.40608886 -2.03977277 3.24509304 0 0 Z " fill="#C7D9EB" transform="translate(563,511)"/>
<path d="M0 0 C0.33 0.66 0.66 1.32 1 2 C-0.14453125 4.3828125 -0.14453125 4.3828125 -1.8125 7.125 C-2.35519531 8.03507812 -2.89789063 8.94515625 -3.45703125 9.8828125 C-3.96621094 10.58148438 -4.47539062 11.28015625 -5 12 C-5.66 12 -6.32 12 -7 12 C-5.61735163 9.13132769 -4.07851447 6.43975968 -2.375 3.75 C-1.92898437 3.04359375 -1.48296875 2.3371875 -1.0234375 1.609375 C-0.68570313 1.07828125 -0.34796875 0.5471875 0 0 Z " fill="#D6E5F0" transform="translate(188,308)"/>
<path d="M0 0 C2.83374881 3.20336822 3.5205537 5.78087253 4 10 C3.01 9.67 2.02 9.34 1 9 C0.67 6.03 0.34 3.06 0 0 Z " fill="#ADC3E0" transform="translate(478,253)"/>
<path d="M0 0 C-2.3129482 2.3129482 -3.47904875 2.49580975 -6.625 3.125 C-7.44226563 3.29257812 -8.25953125 3.46015625 -9.1015625 3.6328125 C-10.04128906 3.81457031 -10.04128906 3.81457031 -11 4 C-10.34 3.34 -9.68 2.68 -9 2 C-8.01 2 -7.02 2 -6 2 C-6 1.34 -6 0.68 -6 0 C-3 -1 -3 -1 0 0 Z " fill="#D4E4F0" transform="translate(459,592)"/>
<path d="M0 0 C1.98 0.99 1.98 0.99 4 2 C4 3.65 4 5.3 4 7 C2.68 6.67 1.36 6.34 0 6 C0.99 6 1.98 6 3 6 C3 5.34 3 4.68 3 4 C2.01 4 1.02 4 0 4 C0 2.68 0 1.36 0 0 Z " fill="#7C9FD2" transform="translate(121,561)"/>
<path d="M0 0 C0.33 0.66 0.66 1.32 1 2 C0.00390625 3.9453125 0.00390625 3.9453125 -1.4375 6.125 C-1.91058594 6.84945313 -2.38367188 7.57390625 -2.87109375 8.3203125 C-3.24363281 8.87460937 -3.61617187 9.42890625 -4 10 C-5.33332095 7.3333581 -4.67102033 5.83319697 -4 3 C-3.01 3 -2.02 3 -1 3 C-0.67 2.01 -0.34 1.02 0 0 Z " fill="#9EBADB" transform="translate(578,488)"/>
<path d="M0 0 C3.3 0 6.6 0 10 0 C6.81237635 2.12508244 4.73487777 2.5020163 1 3 C0.67 2.01 0.34 1.02 0 0 Z " fill="#88ACD3" transform="translate(458,613)"/>
<path d="M0 0 C0.33 0.66 0.66 1.32 1 2 C-0.59617578 5.83082186 -1.49984971 7.66656647 -5 10 C-3.84414715 6.08788267 -2.64465038 3.1254959 0 0 Z " fill="#074EA8" transform="translate(173,338)"/>
<path d="M0 0 C0.6875 1.6875 0.6875 1.6875 1 4 C-0.3125 6.75 -0.3125 6.75 -2 9 C-2.66 9 -3.32 9 -4 9 C-2.94124926 5.59687262 -1.99097846 2.98646769 0 0 Z " fill="#A7C1DF" transform="translate(171,337)"/>
<path d="M0 0 C0.33 0 0.66 0 1 0 C1 1.98 1 3.96 1 6 C0.34 6 -0.32 6 -1 6 C-1.33 6.99 -1.66 7.98 -2 9 C-2.33 7.35 -2.66 5.7 -3 4 C-2.34 4 -1.68 4 -1 4 C-0.67 2.68 -0.34 1.36 0 0 Z " fill="#6A93C9" transform="translate(268,333)"/>
<path d="M0 0 C0.99 0.33 1.98 0.66 3 1 C1.68 3.31 0.36 5.62 -1 8 C-1.66 8 -2.32 8 -3 8 C-1.125 2.25 -1.125 2.25 0 0 Z " fill="#AFCCE4" transform="translate(180,320)"/>
<path d="M0 0 C1.80125336 2.70188004 3.00243753 4.93057703 4 8 C3.67 8.99 3.34 9.98 3 11 C0.60236815 8.60236815 0.65719414 7.66726502 0.375 4.375 C0.30023438 3.55773437 0.22546875 2.74046875 0.1484375 1.8984375 C0.09945313 1.27195312 0.05046875 0.64546875 0 0 Z " fill="#A9C4E0" transform="translate(485,271)"/>
<path d="M0 0 C-0.33 0.66 -0.66 1.32 -1 2 C-3.97 2 -6.94 2 -10 2 C-3.6 -1.2 -3.6 -1.2 0 0 Z " fill="#8AADD6" transform="translate(448,597)"/>
<path d="M0 0 C2.64 0.33 5.28 0.66 8 1 C8 1.66 8 2.32 8 3 C5.36 2.67 2.72 2.34 0 2 C0 1.34 0 0.68 0 0 Z " fill="#B4C9E2" transform="translate(395,576)"/>
<path d="M0 0 C0.66 0 1.32 0 2 0 C1.67 1.98 1.34 3.96 1 6 C0.01 6.33 -0.98 6.66 -2 7 C-2 5.68 -2 4.36 -2 3 C-1.34 3 -0.68 3 0 3 C0 2.01 0 1.02 0 0 Z " fill="#F4F9FA" transform="translate(250,412)"/>
</svg>
